<?xml version="1.0" encoding="UTF-8"?>
<svg version="1.1" xmlns="http://www.w3.org/2000/svg" width="327" height="140">
<path d="M0 0 C5.28 0 10.56 0 16 0 C16.22176141 6.76372294 15.75965399 13.34155868 15.0625 20.0625 C14.97564941 20.92012939 14.88879883 21.77775879 14.79931641 22.66137695 C14.12565902 28.87434098 14.12565902 28.87434098 13 30 C12.64978861 32.81921122 12.35611674 35.62510009 12.09765625 38.453125 C11.92788993 40.20444217 11.75796293 41.95574377 11.58789062 43.70703125 C11.32422267 46.47615797 11.06292149 49.24547509 10.80493164 52.01513672 C10.5547799 54.6826271 10.29546287 57.34910919 10.03515625 60.015625 C9.92410301 61.25182587 9.92410301 61.25182587 9.81080627 62.51300049 C9.73410202 63.29020447 9.65739777 64.06740845 9.57836914 64.86816406 C9.48296593 65.88623138 9.48296593 65.88623138 9.38563538 66.92486572 C9 69 9 69 7 74 C1.39 74 -4.22 74 -10 74 C-10.33 74.99 -10.66 75.98 -11 77 C-14.00271063 78.93325205 -17.16444765 79.61493036 -20.625 80.375 C-21.76710937 80.62894531 -22.90921875 80.88289063 -24.0859375 81.14453125 C-24.70952148 81.28068848 -25.33310547 81.4168457 -25.97558594 81.55712891 C-28.1647652 82.03604487 -30.35200678 82.52319957 -32.5390625 83.01171875 C-36.29111507 83.84920973 -40.04415639 84.68211193 -43.79785156 85.51220703 C-46.1156923 86.02562674 -48.43283606 86.54212896 -50.75 87.05859375 C-58.75512114 88.83664433 -66.75067871 90.29394527 -74.86328125 91.5 C-77.50043457 91.92036815 -80.08109684 92.42578381 -82.6875 93 C-88.35250679 94.19115209 -94.09042578 94.72843762 -99.84448242 95.30273438 C-103.04864008 95.62985052 -105.93352393 95.97784131 -109 97 C-122.86046422 98.65345744 -139.51155914 100.1780639 -153 96 C-153.74636719 95.77054687 -154.49273437 95.54109375 -155.26171875 95.3046875 C-158.85082023 94.08039795 -161.61909073 92.98512794 -164 90 C-164.26641894 86.27013478 -164.1845131 83.55353929 -163 80 C-157.65392384 74.74046105 -152.16577754 75.03376102 -145 75 C-141.94537472 75.18436696 -139.02943971 75.53788208 -136 76 C-135.855625 76.928125 -135.71125 77.85625 -135.5625 78.8125 C-134.37286677 82.00142539 -134.37286677 82.00142539 -132.30273438 82.9543457 C-125.796814 85.14099205 -119.76882491 85.46332503 -112.9375 85.375 C-111.23219116 85.36194824 -111.23219116 85.36194824 -109.49243164 85.34863281 C-97.85056896 85.15181895 -86.49510428 83.75336482 -75 82 C-72.89325949 81.69510291 -70.78648821 81.39041836 -68.6796875 81.0859375 C-55.26030304 79.09027629 -42.13919684 76.3711504 -29 73 C-29.61488281 72.68546875 -30.22976562 72.3709375 -30.86328125 72.046875 C-31.67152344 71.61890625 -32.47976562 71.1909375 -33.3125 70.75 C-34.11300781 70.33234375 -34.91351563 69.9146875 -35.73828125 69.484375 C-39.99028873 66.6937656 -42.35116551 62.50799485 -43.609375 57.64453125 C-45.03771902 47.97464224 -44.5619837 39.67278885 -39.3125 31.3125 C-32.36328827 24.36328827 -24.5757605 21.79276449 -15 21 C-15.33 20.01 -15.66 19.02 -16 18 C-12.04 17.01 -8.08 16.02 -4 15 C-3 21 -3 21 -4 23 C-5.32 23 -6.64 23 -8 23 C-6.02 24.485 -6.02 24.485 -4 26 C-2.26171166 24.26171166 -2.5202013 21.8052199 -2.24609375 19.43359375 C-2.11396484 18.30888672 -1.98183594 17.18417969 -1.84570312 16.02539062 C-1.64364258 14.24938477 -1.64364258 14.24938477 -1.4375 12.4375 C-1.29892578 11.24962891 -1.16035156 10.06175781 -1.01757812 8.83789062 C-0.67452599 5.89237401 -0.33677378 2.94624105 0 0 Z M-25 40 C-27.03233543 43.16906542 -27.29712831 45.7698031 -27.3125 49.5 C-27.32925781 50.4384375 -27.34601563 51.376875 -27.36328125 52.34375 C-26.93780576 55.45475357 -26.26335768 56.83371635 -24 59 C-22.68 59 -21.36 59 -20 59 C-19.67 59.66 -19.34 60.32 -19 61 C-12.20106213 58.76982089 -12.20106213 58.76982089 -7 54 C-5.77514188 51.55028376 -5.83277192 49.85765539 -5.8125 47.125 C-5.79123047 45.82949219 -5.79123047 45.82949219 -5.76953125 44.5078125 C-6.01542685 41.832135 -6.55435395 40.25100596 -8 38 C-14.45417549 34.41434695 -19.41837596 35.43321669 -25 40 Z " fill="#FBFBFB" transform="translate(174,22)"/>
<path d="M0 0 C0.71994141 -0.00773437 1.43988281 -0.01546875 2.18164062 -0.0234375 C5.96684363 -0.00937918 7.71610465 0.1024031 10.9375 2.25 C11.5975 1.59 12.2575 0.93 12.9375 0.25 C15.68235593 0.10492305 18.32230543 0.06347577 21.0625 0.125 C21.81660156 0.13402344 22.57070312 0.14304688 23.34765625 0.15234375 C25.21107254 0.1759313 27.07432593 0.21180281 28.9375 0.25 C28.39183165 6.21367345 27.84037255 12.17677154 27.28344727 18.1394043 C27.09466277 20.16952866 26.9074851 22.19980309 26.72192383 24.23022461 C26.45552233 27.14217057 26.18341974 30.05353476 25.91015625 32.96484375 C25.82782242 33.8783812 25.74548859 34.79191864 25.66065979 35.73313904 C25.05137171 42.13612829 25.05137171 42.13612829 23.9375 43.25 C23.48745862 46.49483615 23.12030726 49.73888101 22.77539062 52.99609375 C22.24938388 57.60613659 21.32681543 61.82046713 19.9375 66.25 C19.2775 66.25 18.6175 66.25 17.9375 66.25 C17.6590625 67.3328125 17.6590625 67.3328125 17.375 68.4375 C15.4418678 72.21971517 12.68066961 74.29088005 8.9375 76.25 C7.9475 76.25 6.9575 76.25 5.9375 76.25 C5.9375 76.91 5.9375 77.57 5.9375 78.25 C-2.2438388 80.72858294 -12.04613718 80.29876484 -19.80078125 76.72265625 C-24.33851872 73.76803272 -28.92151174 69.4586355 -30.76953125 64.26171875 C-31.09828093 62.00430431 -31.19504158 59.84382821 -31.1875 57.5625 C-31.19007813 56.77488281 -31.19265625 55.98726562 -31.1953125 55.17578125 C-31.0625 53.25 -31.0625 53.25 -30.0625 52.25 C-27.53200598 52.17686433 -25.02945163 52.15752473 -22.5 52.1875 C-21.78908203 52.19201172 -21.07816406 52.19652344 -20.34570312 52.20117188 C-18.58459987 52.21299136 -16.82353964 52.23092737 -15.0625 52.25 C-15.03671875 52.87648437 -15.0109375 53.50296875 -14.984375 54.1484375 C-14.92765625 54.96570313 -14.8709375 55.78296875 -14.8125 56.625 C-14.76609375 57.43710938 -14.7196875 58.24921875 -14.671875 59.0859375 C-14.2680639 61.38005258 -14.2680639 61.38005258 -12.296875 62.5234375 C-9.92301417 63.29535728 -8.05425099 63.51706679 -5.5625 63.5 C-4.8096875 63.50515625 -4.056875 63.5103125 -3.28125 63.515625 C-0.76993765 63.21497493 0.81725096 62.62355264 2.9375 61.25 C4.51062411 57.63181456 4.9375 55.22906647 4.9375 51.25 C3.9475 51.58 2.9575 51.91 1.9375 52.25 C-0.20663223 52.34504628 -2.3537677 52.37987226 -4.5 52.375 C-5.63308594 52.37757812 -6.76617187 52.38015625 -7.93359375 52.3828125 C-10.51471183 52.27325193 -12.61194405 52.00864877 -15.0625 51.25 C-15.0625 50.59 -15.0625 49.93 -15.0625 49.25 C-15.92875 49.085 -16.795 48.92 -17.6875 48.75 C-22.30912311 46.69594528 -24.47373554 43.50839105 -27.0625 39.25 C-28.31908192 35.48025424 -28.28563998 31.92827808 -28.3125 28 C-28.333125 27.26136719 -28.35375 26.52273437 -28.375 25.76171875 C-28.42233434 19.05207626 -26.70804976 14.64780108 -22.875 9.0625 C-19.54612638 5.73362638 -16.31842298 4.11143749 -12.0625 2.25 C-11.48757812 1.8890625 -10.91265625 1.528125 -10.3203125 1.15625 C-6.94100046 -0.20015206 -3.58372613 -0.03870811 0 0 Z M-9.0625 17.25 C-12.35166231 21.96446597 -12.59143989 25.69613115 -12.0625 31.25 C-10.79990116 34.15397732 -9.91548855 35.71414822 -7.234375 37.3984375 C-4.72075192 38.38399475 -3.22384945 38.34634 -0.5625 38 C0.1903125 37.91234375 0.943125 37.8246875 1.71875 37.734375 C4.12554038 37.20894893 5.86590551 36.58836488 7.9375 35.25 C10.35449181 31.45436305 10.9791 27.88440003 10.6875 23.4375 C9.76740804 18.6280188 9.76740804 18.6280188 6.25 15.5625 C0.36054141 13.22894094 -3.77180484 13.72286989 -9.0625 17.25 Z " fill="#FCFCFC" transform="translate(216.0625,43.75)"/>
<path d="M0 0 C5.43285202 3.12720263 9.27092821 6.86672217 11.7109375 12.66796875 C12.69315771 16.43915367 12.78479555 19.95061518 12.6875 23.8125 C12.67847656 24.50085938 12.66945313 25.18921875 12.66015625 25.8984375 C12.63682513 27.57827838 12.60096326 29.25793746 12.5625 30.9375 C8.9325 31.2675 5.3025 31.5975 1.5625 31.9375 C4.2025 33.2575 6.8425 34.5775 9.5625 35.9375 C9.5625 40.25999566 7.41334926 41.82145546 4.5625 44.9375 C1.5625 46.9375 1.5625 46.9375 -1.4375 46.9375 C-1.4375 47.5975 -1.4375 48.2575 -1.4375 48.9375 C-2.7575 49.5975 -4.0775 50.2575 -5.4375 50.9375 C-4.1175 50.9375 -2.7975 50.9375 -1.4375 50.9375 C-0.9425 52.9175 -0.9425 52.9175 -0.4375 54.9375 C-2.4175 55.5975 -4.3975 56.2575 -6.4375 56.9375 C-6.48648438 57.62457031 -6.53546875 58.31164062 -6.5859375 59.01953125 C-6.66070312 59.92058594 -6.73546875 60.82164063 -6.8125 61.75 C-6.91691406 63.08998047 -6.91691406 63.08998047 -7.0234375 64.45703125 C-7.4375 66.9375 -7.4375 66.9375 -9.4375 69.9375 C-13.0625 70.125 -13.0625 70.125 -16.4375 69.9375 C-16.4375 69.2775 -16.4375 68.6175 -16.4375 67.9375 C-19.36792859 68.41454651 -22.24709939 68.88879287 -25.125 69.625 C-27.4375 69.9375 -27.4375 69.9375 -30.4375 67.9375 C-31.4275 68.9275 -31.4275 68.9275 -32.4375 69.9375 C-36.31752054 70.36861339 -38.58671964 70.46923772 -41.9375 68.375 C-43.4375 65.9375 -43.4375 65.9375 -43.5 62.5 C-42.26823687 58.36997069 -40.64004839 56.73972984 -37.4375 53.9375 C-37.1075 53.2775 -36.7775 52.6175 -36.4375 51.9375 C-34.7875 52.2675 -33.1375 52.5975 -31.4375 52.9375 C-31.4375 54.2575 -31.4375 55.5775 -31.4375 56.9375 C-30.674375 56.9375 -29.91125 56.9375 -29.125 56.9375 C-25.89583333 56.9375 -22.66666667 56.9375 -19.4375 56.9375 C-19.4375 57.5975 -19.4375 58.2575 -19.4375 58.9375 C-18.4475 58.2775 -17.4575 57.6175 -16.4375 56.9375 C-13.75 56.8125 -13.75 56.8125 -11.4375 56.9375 C-11.1075 54.6275 -10.7775 52.3175 -10.4375 49.9375 C-11.11554688 49.99550781 -11.79359375 50.05351563 -12.4921875 50.11328125 C-19.78195529 50.46666335 -25.45168248 49.30985642 -31.4375 44.9375 C-31.9325 43.4525 -31.9325 43.4525 -32.4375 41.9375 C-33.4275 41.6075 -34.4175 41.2775 -35.4375 40.9375 C-40.74364967 33.50889047 -39.81913995 25.67281441 -39.4375 16.9375 C-38.7775 16.9375 -38.1175 16.9375 -37.4375 16.9375 C-37.416875 16.1125 -37.39625 15.2875 -37.375 14.4375 C-35.75384284 8.38517992 -31.62017018 4.24710211 -26.3125 1.0625 C-24.889375 0.505625 -24.889375 0.505625 -23.4375 -0.0625 C-22.68082031 -0.40667969 -21.92414063 -0.75085937 -21.14453125 -1.10546875 C-14.30177157 -3.52462621 -6.55511233 -3.01932447 0 0 Z M-20.4375 14.9375 C-20.4375 15.5975 -20.4375 16.2575 -20.4375 16.9375 C-15.1575 16.9375 -9.8775 16.9375 -4.4375 16.9375 C-5.11523136 13.91455208 -5.11523136 13.91455208 -7.125 12.75 C-12.31226271 10.92744824 -16.09286524 11.61513224 -20.4375 14.9375 Z M-21.4375 30.9375 C-19.38710518 35.25812112 -19.38710518 35.25812112 -15.4375 36.9375 C-11.76158347 37.51790787 -10.47838589 36.96108802 -7.1875 35.0625 C-4.40164351 33.22770301 -4.40164351 33.22770301 -3.4375 30.9375 C-9.3775 30.9375 -15.3175 30.9375 -21.4375 30.9375 Z M-38.4375 61.9375 C-38.4375 62.9275 -38.4375 63.9175 -38.4375 64.9375 C-37.7775 64.9375 -37.1175 64.9375 -36.4375 64.9375 C-36.4375 63.9475 -36.4375 62.9575 -36.4375 61.9375 C-37.0975 61.9375 -37.7575 61.9375 -38.4375 61.9375 Z M-14.4375 61.9375 C-14.4375 62.9275 -14.4375 63.9175 -14.4375 64.9375 C-13.4475 64.6075 -12.4575 64.2775 -11.4375 63.9375 C-11.4375 63.2775 -11.4375 62.6175 -11.4375 61.9375 C-12.4275 61.9375 -13.4175 61.9375 -14.4375 61.9375 Z " fill="#FBFCFC" transform="translate(283.4375,46.0625)"/>
<path d="M0 0 C1.48831242 0.00667405 2.97660807 0.01863442 4.46484375 0.03515625 C5.22345703 0.03966797 5.98207031 0.04417969 6.76367188 0.04882812 C8.64326246 0.06064945 10.52281274 0.07858547 12.40234375 0.09765625 C11.90546367 8.12174094 11.38259474 16.11561247 10.40234375 24.09765625 C11.72234375 24.09765625 13.04234375 24.09765625 14.40234375 24.09765625 C14.40234375 23.43765625 14.40234375 22.77765625 14.40234375 22.09765625 C18.69234375 22.09765625 22.98234375 22.09765625 27.40234375 22.09765625 C27.40234375 22.75765625 27.40234375 23.41765625 27.40234375 24.09765625 C28.30984375 24.22140625 29.21734375 24.34515625 30.15234375 24.47265625 C34.15892202 25.24315207 36.46549444 25.9414043 39.0703125 29.15625 C39.57175781 29.94128906 40.07320312 30.72632812 40.58984375 31.53515625 C41.09902344 32.31761719 41.60820313 33.10007813 42.1328125 33.90625 C44.59028229 38.14822093 44.61754787 42.08062069 44.65234375 46.84765625 C44.67296875 47.53859375 44.69359375 48.22953125 44.71484375 48.94140625 C44.76743985 55.93668745 42.64272281 61.33633744 37.9296875 66.6796875 C30.893299 73.21219141 24.24934971 74.37083226 14.87890625 74.33203125 C10.66258218 74.04778468 8.03565982 73.17383686 4.40234375 71.09765625 C4.07234375 72.08765625 3.74234375 73.07765625 3.40234375 74.09765625 C-1.87765625 74.09765625 -7.15765625 74.09765625 -12.59765625 74.09765625 C-12.07996373 63.74380594 -11.18457526 53.47050897 -10.09765625 43.16015625 C-9.90175903 41.26571777 -9.90175903 41.26571777 -9.7019043 39.33300781 C-9.57468994 38.15319336 -9.44747559 36.97337891 -9.31640625 35.7578125 C-9.1452832 34.15885132 -9.1452832 34.15885132 -8.97070312 32.52758789 C-8.59765625 30.09765625 -8.59765625 30.09765625 -7.59765625 29.09765625 C-7.31012658 27.0412922 -7.08187909 24.97658032 -6.87890625 22.91015625 C-6.75128906 21.65460937 -6.62367187 20.3990625 -6.4921875 19.10546875 C-6.36017114 17.76958115 -6.22866704 16.43364284 -6.09765625 15.09765625 C-5.8422282 12.49292078 -5.58106746 9.8889948 -5.31640625 7.28515625 C-5.20232422 6.12371094 -5.08824219 4.96226563 -4.97070312 3.765625 C-4.403627 -0.29000844 -4.28335101 0.11626903 0 0 Z M8.08984375 41.16015625 C5.63602075 45.43162591 5.47635755 49.28569377 6.40234375 54.09765625 C8.88440431 57.40707033 11.4795944 59.70571293 15.40234375 61.09765625 C16.72234375 61.09765625 18.04234375 61.09765625 19.40234375 61.09765625 C19.40234375 60.43765625 19.40234375 59.77765625 19.40234375 59.09765625 C20.33046875 58.91203125 21.25859375 58.72640625 22.21484375 58.53515625 C25.68386528 57.35165887 25.68386528 57.35165887 27.21484375 53.84765625 C28.25374246 50.56692347 28.98649586 47.50760898 29.40234375 44.09765625 C28.74234375 44.09765625 28.08234375 44.09765625 27.40234375 44.09765625 C27.36109375 43.33453125 27.31984375 42.57140625 27.27734375 41.78515625 C26.62571747 38.83492484 26.62571747 38.83492484 23.65234375 37.28515625 C16.83000864 34.79237996 13.37713631 36.44446288 8.08984375 41.16015625 Z " fill="#FCFCFC" transform="translate(25.59765625,21.90234375)"/>
<path d="M0 0 C6.27 0.33 12.54 0.66 19 1 C18 5 18 5 16.2890625 6.1640625 C13.66979424 7.12058709 11.0998811 7.7765119 8.375 8.375 C7.23289063 8.62894531 6.09078125 8.88289063 4.9140625 9.14453125 C4.29047852 9.28068848 3.66689453 9.4168457 3.02441406 9.55712891 C0.8352348 10.03604487 -1.35200678 10.52319957 -3.5390625 11.01171875 C-7.29111507 11.84920973 -11.04415639 12.68211193 -14.79785156 13.51220703 C-17.1156923 14.02562674 -19.43283606 14.54212896 -21.75 15.05859375 C-29.75512114 16.83664433 -37.75067871 18.29394527 -45.86328125 19.5 C-48.50043457 19.92036815 -51.08109684 20.42578381 -53.6875 21 C-59.35250679 22.19115209 -65.09042578 22.72843762 -70.84448242 23.30273438 C-74.04864008 23.62985052 -76.93352393 23.97784131 -80 25 C-93.86046422 26.65345744 -110.51155914 28.1780639 -124 24 C-124.74636719 23.77054688 -125.49273437 23.54109375 -126.26171875 23.3046875 C-129.85082023 22.08039795 -132.61909073 20.98512794 -135 18 C-135.26641894 14.27013478 -135.1845131 11.55353929 -134 8 C-128.65392384 2.74046105 -123.16577754 3.03376102 -116 3 C-112.94537472 3.18436696 -110.02943971 3.53788208 -107 4 C-106.855625 4.928125 -106.71125 5.85625 -106.5625 6.8125 C-105.37286677 10.00142539 -105.37286677 10.00142539 -103.30273438 10.9543457 C-96.796814 13.14099205 -90.76882491 13.46332503 -83.9375 13.375 C-82.23219116 13.36194824 -82.23219116 13.36194824 -80.49243164 13.34863281 C-68.85056896 13.15181895 -57.49510428 11.75336482 -46 10 C-43.89325949 9.69510291 -41.78648821 9.39041836 -39.6796875 9.0859375 C-26.26030304 7.09027629 -13.13919684 4.3711504 0 1 C0 0.67 0 0.34 0 0 Z " fill="#205FA8" transform="translate(145,94)"/>
<path d="M0 0 C2.15290906 -0.00964349 4.30483653 -0.04067385 6.45751953 -0.07226562 C15.77091927 -0.14353289 24.36327541 0.49158124 32.74267578 4.92773438 C34.8868456 7.66339932 35.28253609 9.70207755 35.02001953 13.16601562 C33.37063032 20.52589523 26.9491693 24.56161004 21.27392578 28.83398438 C18.55517578 30.24023438 18.55517578 30.24023438 15.98095703 30.08789062 C12.04369791 28.712069 8.53743055 27.22974524 5.55517578 24.24023438 C4.83879877 21.2872299 5.13829471 19.31473226 5.55517578 16.24023438 C-3.62547429 11.64990934 -13.0669795 12.06764776 -23.13232422 12.55273438 C-24.1794458 12.59906006 -25.22656738 12.64538574 -26.30541992 12.69311523 C-33.44913189 13.04570778 -40.45653138 13.72189975 -47.51904297 14.83789062 C-50.44482422 15.24023438 -50.44482422 15.24023438 -53.27685547 15.23632812 C-55.42502811 14.98516108 -55.42502811 14.98516108 -56.44482422 16.24023438 C-57.81934966 16.52351936 -59.20493763 16.75373621 -60.59326172 16.95898438 C-61.43373047 17.08660156 -62.27419922 17.21421875 -63.14013672 17.34570312 C-64.02443359 17.47589844 -64.90873047 17.60609375 -65.81982422 17.74023438 C-67.55715729 17.99827943 -69.29415381 18.25860336 -71.03076172 18.52148438 C-72.19164307 18.69260742 -72.19164307 18.69260742 -73.37597656 18.8671875 C-75.63111687 19.2229648 -75.63111687 19.2229648 -78.44482422 20.24023438 C-80.77782247 20.27977672 -83.11190611 20.2842517 -85.44482422 20.24023438 C-85.44482422 17.93023437 -85.44482422 15.62023437 -85.44482422 13.24023438 C-80.78787064 11.10388103 -76.56207486 9.67553287 -71.49169922 8.74023438 C-70.84168945 8.61927902 -70.19167969 8.49832367 -69.52197266 8.373703 C-67.41459564 7.98589577 -65.30506678 7.61210866 -63.19482422 7.24023438 C-62.47282837 7.11016998 -61.75083252 6.98010559 -61.00695801 6.84609985 C-47.71787263 4.45896737 -34.41561725 2.77004889 -20.96728516 1.53393555 C-18.45442411 1.28363877 -18.45442411 1.28363877 -16.06152344 0.71899414 C-10.78283504 -0.24681179 -5.3538665 0.01447317 0 0 Z " fill="#1F5DA4" transform="translate(275.44482421875,19.759765625)"/>
<path d="M0 0 C4.95 0 9.9 0 15 0 C15 0.66 15 1.32 15 2 C15.99 2 16.98 2 18 2 C18 1.34 18 0.68 18 0 C25.24539726 -0.53449652 29.72912263 0.28392452 36 4 C35.4023326 7.54615991 34.04105426 9.50132351 31.6875 12.1875 C31.09324219 12.88230469 30.49898437 13.57710937 29.88671875 14.29296875 C27.84138538 16.14350847 26.74181047 16.80845635 24 17 C23.01 16.34 22.02 15.68 21 15 C18.35367713 15.3121764 18.35367713 15.3121764 16 16 C14.0339392 21.0920152 13.43398429 25.92888344 12.9375 31.3125 C12.12629758 39.87370242 12.12629758 39.87370242 11 41 C10.79224439 42.66204487 10.63281745 44.33029491 10.5 46 C10.11111111 50.88888889 10.11111111 50.88888889 9 52 C6.30345146 52.07319621 3.63308542 52.09242537 0.9375 52.0625 C-0.20041992 52.05573242 -0.20041992 52.05573242 -1.36132812 52.04882812 C-3.24091871 52.0370068 -5.12046899 52.01907078 -7 52 C-7.04254356 50.00045254 -7.04080783 47.99958364 -7 46 C-6.505 45.505 -6.505 45.505 -6 45 C-5.95386799 43.50070956 -5.96203748 41.99951954 -6 40.5 C-6.03796252 39.00048046 -6.04613201 37.49929044 -6 36 C-5.505 35.505 -5.505 35.505 -5 35 C-4.72403282 32.92902008 -4.5077027 30.85004113 -4.31640625 28.76953125 C-4.19330078 27.49142578 -4.07019531 26.21332031 -3.94335938 24.89648438 C-3.75235449 22.86048482 -3.56357845 20.82431455 -3.37768555 18.7878418 C-3.19665097 16.82283736 -3.00661128 14.85866923 -2.81640625 12.89453125 C-2.70756104 11.71737549 -2.59871582 10.54021973 -2.48657227 9.32739258 C-2 6 -2 6 0 0 Z " fill="#FDFDFD" transform="translate(76,44)"/>
<path d="M0 0 C5.28 0 10.56 0 16 0 C15.85982174 2.97953359 15.71313658 5.95849304 15.5625 8.9375 C15.52318359 9.78763672 15.48386719 10.63777344 15.44335938 11.51367188 C15.40146484 12.32255859 15.35957031 13.13144531 15.31640625 13.96484375 C15.27974854 14.7137085 15.24309082 15.46257324 15.20532227 16.23413086 C15 18 15 18 14 19 C13.71195578 21.0941644 13.48394835 23.19664072 13.28125 25.30078125 C13.08982422 27.23147461 13.08982422 27.23147461 12.89453125 29.20117188 C12.76264496 30.57157846 12.63113851 31.94202165 12.5 33.3125 C12.24316654 35.97564106 11.98194575 38.63825055 11.71875 41.30078125 C11.60466797 42.48841064 11.49058594 43.67604004 11.37304688 44.8996582 C11 48 11 48 10 52 C4.72 52 -0.56 52 -6 52 C-6.19727604 44.10038125 -5.43168973 36.40946407 -4.5625 28.5625 C-4.42779297 27.28439453 -4.29308594 26.00628906 -4.15429688 24.68945312 C-3.12987157 15.25974314 -3.12987157 15.25974314 -2 13 C-1.61212744 10.79733684 -1.26290505 8.58775432 -0.9375 6.375 C-0.628125 4.27125 -0.31875 2.1675 0 0 Z " fill="#FBFCFC" transform="translate(115,44)"/>
<path d="M0 0 C0 0.33 0 0.66 0 1 C-0.85464844 1.19335938 -1.70929688 1.38671875 -2.58984375 1.5859375 C-3.69457031 1.84632812 -4.79929688 2.10671875 -5.9375 2.375 C-7.03964844 2.63023438 -8.14179688 2.88546875 -9.27734375 3.1484375 C-10.62505859 3.56996094 -10.62505859 3.56996094 -12 4 C-12.33 4.66 -12.66 5.32 -13 6 C-13.66 6.66 -14.32 7.32 -15 8 C-13.75464478 7.90912109 -13.75464478 7.90912109 -12.48413086 7.81640625 C-9.3252387 7.58850144 -6.16604475 7.36549104 -3.0065918 7.14550781 C-0.99827708 7.00427412 1.00965907 6.85768911 3.01757812 6.7109375 C28.43921231 4.95339242 28.43921231 4.95339242 40 8 C36.90981004 9.03006332 35.67946857 8.96987143 32.54296875 8.54296875 C26.75285597 7.89122685 21.12367784 8.0324376 15.3125 8.3125 C14.26537842 8.35882568 13.21825684 8.40515137 12.1394043 8.45288086 C4.99569233 8.8054734 -2.01170716 9.48166538 -9.07421875 10.59765625 C-12 11 -12 11 -14.83203125 10.99609375 C-16.9802039 10.74492671 -16.9802039 10.74492671 -18 12 C-19.37452545 12.28328499 -20.76011341 12.51350184 -22.1484375 12.71875 C-22.98890625 12.84636719 -23.829375 12.97398438 -24.6953125 13.10546875 C-25.57960937 13.23566406 -26.46390625 13.36585937 -27.375 13.5 C-29.11233307 13.75804506 -30.84932959 14.01836899 -32.5859375 14.28125 C-33.74681885 14.45237305 -33.74681885 14.45237305 -34.93115234 14.62695312 C-37.18629266 14.98273042 -37.18629266 14.98273042 -40 16 C-42.33299825 16.03954234 -44.66708189 16.04401732 -47 16 C-47 13.69 -47 11.38 -47 9 C-42.1679172 6.76160871 -37.60174954 5.31153792 -32.34375 4.39453125 C-31.63778687 4.26559982 -30.93182373 4.1366684 -30.20446777 4.00382996 C-28.72281315 3.73524883 -27.24041199 3.47075627 -25.75732422 3.21020508 C-23.50405833 2.81321501 -21.25402004 2.40077111 -19.00390625 1.98632812 C-17.55485331 1.72563917 -16.10563933 1.46584339 -14.65625 1.20703125 C-13.99250366 1.08519974 -13.32875732 0.96336823 -12.64489746 0.83784485 C-8.3862071 0.10013511 -4.31743169 -0.10779625 0 0 Z " fill="#174E8E" transform="translate(237,24)"/>
<path d="M0 0 C6.27 0.33 12.54 0.66 19 1 C18 5 18 5 16.2890625 6.1640625 C13.66979424 7.12058709 11.0998811 7.7765119 8.375 8.375 C7.23289063 8.62894531 6.09078125 8.88289063 4.9140625 9.14453125 C4.29047852 9.28068848 3.66689453 9.4168457 3.02441406 9.55712891 C0.8352348 10.03604487 -1.35200678 10.52319957 -3.5390625 11.01171875 C-7.28494647 11.84783285 -11.03184594 12.67924143 -14.77929688 13.50830078 C-18.52004326 14.33656191 -22.26000783 15.16834095 -26 16 C-26.33 15.34 -26.66 14.68 -27 14 C-26.01 13.67 -25.02 13.34 -24 13 C-24.99 12.67 -25.98 12.34 -27 12 C-27 11.34 -27 10.68 -27 10 C-26.34 9.67 -25.68 9.34 -25 9 C-27.64 9 -30.28 9 -33 9 C-33 8.67 -33 8.34 -33 8 C-32.12601562 7.82984375 -31.25203125 7.6596875 -30.3515625 7.484375 C-20.19694991 5.48325638 -10.09579852 3.27820425 0 1 C0 0.67 0 0.34 0 0 Z " fill="#1D5BA1" transform="translate(145,94)"/>
<path d="M0 0 C2.85758077 1.77367082 3.01143636 3.04750488 3.8125 6.375 C4.00035652 10.0068927 3.755451 11.85866663 2 15 C-0.36613456 16.18306728 -1.86780736 16.13354608 -4.5 16.125 C-5.2940625 16.12757812 -6.088125 16.13015625 -6.90625 16.1328125 C-9 16 -9 16 -11 15 C-11 14.01 -11 13.02 -11 12 C-11.66 12 -12.32 12 -13 12 C-13 9.36 -13 6.72 -13 4 C-12.34 4 -11.68 4 -11 4 C-11 3.01 -11 2.02 -11 1 C-6.94405371 -1.02797315 -4.37353074 -1.23599782 0 0 Z " fill="#F8F8F8" transform="translate(130,17)"/>
<path d="M0 0 C1.32 0 2.64 0 4 0 C4.33 0.66 4.66 1.32 5 2 C5.66 1.34 6.32 0.68 7 0 C10.61649298 -0.47171648 12.37312512 -0.41791658 15.4375 1.625 C17 4 17 4 17.0625 7.0625 C16 10 16 10 13.6875 11.9375 C10.75863729 13.09542247 9.83632189 13.22907282 7 12 C6.01 11.34 5.02 10.68 4 10 C3.01 11.485 3.01 11.485 2 13 C1.01 13 0.02 13 -1 13 C-1.02696365 11.20841511 -1.04637917 9.41671527 -1.0625 7.625 C-1.07410156 6.62726563 -1.08570313 5.62953125 -1.09765625 4.6015625 C-1 2 -1 2 0 0 Z M8 5 C8.33 5.99 8.66 6.98 9 8 C9.66 8 10.32 8 11 8 C11 7.01 11 6.02 11 5 C10.01 5 9.02 5 8 5 Z " fill="#FBFCFC" transform="translate(278,103)"/>
<path d="M0 0 C0 0.33 0 0.66 0 1 C-1.1446875 1.185625 -1.1446875 1.185625 -2.3125 1.375 C-5.20267136 1.88102792 -5.20267136 1.88102792 -8 4 C-10.33293334 4.04320247 -12.6670134 4.04022391 -15 4 C-16.67557379 4.28520405 -18.34817245 4.59955696 -20 5 C-19.38125 5.268125 -18.7625 5.53625 -18.125 5.8125 C-16 7 -16 7 -14 10 C-20.51693922 12.9622451 -26.97167517 13.12330394 -34 13 C-34 12.67 -34 12.34 -34 12 C-31.69 12 -29.38 12 -27 12 C-26.67 10.02 -26.34 8.04 -26 6 C-27.6560022 6.02356567 -27.6560022 6.02356567 -29.34545898 6.04760742 C-33.47721946 6.10228283 -37.60894854 6.13648567 -41.7409668 6.16479492 C-43.52259719 6.17979643 -45.30419119 6.20020433 -47.08569336 6.22631836 C-49.66008535 6.26308509 -52.2339853 6.27981285 -54.80859375 6.29296875 C-55.59334579 6.30845261 -56.37809784 6.32393646 -57.18663025 6.33988953 C-62.92961133 6.34160154 -67.66583227 5.09381181 -73 3 C-72.67 2.34 -72.34 1.68 -72 1 C-71.49025635 1.21221191 -70.9805127 1.42442383 -70.45532227 1.64306641 C-63.87804293 4.13334384 -57.92422864 4.46388566 -50.9375 4.375 C-49.8144043 4.36847412 -48.69130859 4.36194824 -47.53417969 4.35522461 C-34.76324782 4.15606952 -22.14532193 2.5832448 -9.5703125 0.40625 C-6.35956198 -0.10122425 -3.24453565 -0.06489071 0 0 Z " fill="#1B4F88" transform="translate(112,103)"/>
<path d="M0 0 C1.918125 0.4640625 1.918125 0.4640625 3.875 0.9375 C8.21824127 1.91490136 12.49877942 2.41383442 16.93359375 2.75390625 C19 3 19 3 21 4 C23.31082534 4.09735819 25.62462958 4.12977373 27.9375 4.125 C29.80728516 4.12886719 29.80728516 4.12886719 31.71484375 4.1328125 C35.00676297 4.15199431 35.00676297 4.15199431 38 3 C40.5048219 2.76732732 42.99005225 2.57936915 45.5 2.4375 C46.56444336 2.37381226 46.56444336 2.37381226 47.65039062 2.30883789 C53.43635973 1.98412847 59.20522762 1.88950646 65 2 C65 2.33 65 2.66 65 3 C43.72456653 6.64014892 20.41673033 9.31792717 0 1 C0 0.67 0 0.34 0 0 Z " fill="#094D72" transform="translate(13,114)"/>
<path d="M0 0 C-1.98 0 -3.96 0 -6 0 C-6 0.66 -6 1.32 -6 2 C-3.03 2 -0.06 2 3 2 C3 2.33 3 2.66 3 3 C-10.6332574 6.44419134 -10.6332574 6.44419134 -17 6 C-17 5.34 -17 4.68 -17 4 C-17.66 3.67 -18.32 3.34 -19 3 C-18.67 2.01 -18.34 1.02 -18 0 C-15.75265248 -0.39058179 -13.50195579 -0.76192958 -11.25 -1.125 C-9.99703125 -1.33382812 -8.7440625 -1.54265625 -7.453125 -1.7578125 C-4.07025291 -1.99507276 -2.74374672 -1.8707364 0 0 Z " fill="#2061AC" transform="translate(124,104)"/>
<path d="M0 0 C11.88 0 23.76 0 36 0 C36 0.66 36 1.32 36 2 C31.71 2 27.42 2 23 2 C23 2.66 23 3.32 23 4 C21.02 4.99 21.02 4.99 19 6 C19 5.01 19 4.02 19 3 C13.39 2.67 7.78 2.34 2 2 C2.33 2.99 2.66 3.98 3 5 C2.01 4.67 1.02 4.34 0 4 C0 2.68 0 1.36 0 0 Z " fill="#E6E7E6" transform="translate(260,75)"/>
<path d="M0 0 C1.125 5.75 1.125 5.75 0 8 C-6.99641577 9.37634409 -6.99641577 9.37634409 -10.5 8.0625 C-10.995 7.711875 -11.49 7.36125 -12 7 C-12 5.68 -12 4.36 -12 3 C-10.37604003 2.49663233 -8.75079459 1.99741024 -7.125 1.5 C-6.22007812 1.2215625 -5.31515625 0.943125 -4.3828125 0.65625 C-2 0 -2 0 0 0 Z " fill="#3B659E" transform="translate(170,37)"/>
<path d="M0 0 C6.27 0.33 12.54 0.66 19 1 C18 5 18 5 16.4375 6.125 C6.90969331 9.5452383 6.90969331 9.5452383 2 8 C2 6.35 2 4.7 2 3 C8.93 3.495 8.93 3.495 16 4 C16 3.34 16 2.68 16 2 C15.01257813 2.02320312 14.02515625 2.04640625 13.0078125 2.0703125 C11.72648438 2.08835937 10.44515625 2.10640625 9.125 2.125 C7.21074219 2.15980469 7.21074219 2.15980469 5.2578125 2.1953125 C2 2 2 2 0 0 Z " fill="#3A6392" transform="translate(145,94)"/>
<path d="M0 0 C0.68384766 0.05220703 1.36769531 0.10441406 2.07226562 0.15820312 C3.73621169 0.28619898 5.3994473 0.42337719 7.0625 0.5625 C7.0625 1.2225 7.0625 1.8825 7.0625 2.5625 C-5.5435929 3.81157933 -5.5435929 3.81157933 -10.5625 2.9375 C-13.87971293 2.17466628 -13.87971293 2.17466628 -15.8125 4 C-16.18375 4.515625 -16.555 5.03125 -16.9375 5.5625 C-17.5975 5.5625 -18.2575 5.5625 -18.9375 5.5625 C-18.9375 6.820625 -18.9375 8.07875 -18.9375 9.375 C-18.9375 11.77083333 -18.9375 14.16666667 -18.9375 16.5625 C-20.9375 14.5625 -20.9375 14.5625 -21.125 11.125 C-20.91232816 7.08423496 -20.6887198 5.3137198 -17.8125 2.4375 C-12.31901764 -1.14520589 -6.33601607 -0.50463845 0 0 Z " fill="#2B578B" transform="translate(30.9375,97.4375)"/>
<path d="M0 0 C6.75 0.75 6.75 0.75 9 3 C9.125 5.625 9.125 5.625 9 8 C8.34 8 7.68 8 7 8 C6.67 8.99 6.34 9.98 6 11 C6.969375 11.28875 7.93875 11.5775 8.9375 11.875 C12 13 12 13 13 15 C15.01669827 16.13350534 15.01669827 16.13350534 17 17 C14.37788672 18.00434155 13.29541493 18.11689432 10.640625 17.06640625 C8.17291904 15.51400952 6.04338687 14.08658744 4 12 C3.39366 9.1936653 3.76537556 6.9093431 4 4 C2.16658535 1.49479421 2.16658535 1.49479421 0 0 Z " fill="#285B95" transform="translate(277,32)"/>
<path d="M0 0 C0 0.66 0 1.32 0 2 C-1.79244141 1.98259766 -1.79244141 1.98259766 -3.62109375 1.96484375 C-15.34321693 1.87827909 -15.34321693 1.87827909 -27 3 C-27 3.66 -27 4.32 -27 5 C-28.65 5 -30.3 5 -32 5 C-32 4.34 -32 3.68 -32 3 C-21.37231466 -0.62896573 -11.09540742 -0.29602372 0 0 Z " fill="#144171" transform="translate(161,96)"/>
<path d="M0 0 C0.33 0.66 0.66 1.32 1 2 C2.32 1.67 3.64 1.34 5 1 C5.66 2.32 6.32 3.64 7 5 C6.34 5 5.68 5 5 5 C4.3503125 5.99 4.3503125 5.99 3.6875 7 C2 9 2 9 -0.6875 9.25 C-1.450625 9.1675 -2.21375 9.085 -3 9 C-3.1875 5.625 -3.1875 5.625 -3 2 C-2.01 1.34 -1.02 0.68 0 0 Z " fill="#2D62A1" transform="translate(193,31)"/>
<path d="M0 0 C0 0.66 0 1.32 0 2 C0.66 2.33 1.32 2.66 2 3 C-4.87881591 5.24884366 -4.87881591 5.24884366 -9 4 C-11.67298895 3.90176636 -14.32396139 3.95539936 -17 4 C-17 3.67 -17 3.34 -17 3 C-14.54212344 2.49766027 -12.08374976 1.99803143 -9.625 1.5 C-8.57699219 1.28537109 -8.57699219 1.28537109 -7.5078125 1.06640625 C-2.2265625 0 -2.2265625 0 0 0 Z M-11 5 C-9.02 5 -7.04 5 -5 5 C-5.33 5.66 -5.66 6.32 -6 7 C-7.65 7 -9.3 7 -11 7 C-11 6.34 -11 5.68 -11 5 Z " fill="#255A9E" transform="translate(129,99)"/>
<path d="M0 0 C1.918125 0.4640625 1.918125 0.4640625 3.875 0.9375 C8.21824127 1.91490136 12.49877942 2.41383442 16.93359375 2.75390625 C19 3 19 3 21 4 C21 4.66 21 5.32 21 6 C13.26529967 5.70590493 7.01842425 4.27323474 0 1 C0 0.67 0 0.34 0 0 Z " fill="#0B3F75" transform="translate(13,114)"/>
<path d="M0 0 C5.28 0 10.56 0 16 0 C15.67 4.95 15.34 9.9 15 15 C14.34 14.67 13.68 14.34 13 14 C13 10.04 13 6.08 13 2 C8.71 1.67 4.42 1.34 0 1 C0 0.67 0 0.34 0 0 Z " fill="#EBEBEB" transform="translate(22,22)"/>
<path d="M0 0 C0.66 0.33 1.32 0.66 2 1 C1.34 7.93 0.68 14.86 0 22 C-2 20 -2 20 -2.23046875 17.87109375 C-2.21628906 17.06800781 -2.20210938 16.26492187 -2.1875 15.4375 C-2.18105469 14.63183594 -2.17460938 13.82617188 -2.16796875 12.99609375 C-2 11 -2 11 -1 10 C-0.76712992 8.31816052 -0.58735834 6.6287584 -0.4375 4.9375 C-0.35371094 4.01839844 -0.26992187 3.09929687 -0.18359375 2.15234375 C-0.12300781 1.44207031 -0.06242187 0.73179688 0 0 Z " fill="#F4F4F4" transform="translate(72,69)"/>
<path d="M0 0 C1.65 0.33 3.3 0.66 5 1 C4.67 2.98 4.34 4.96 4 7 C2.35 6.67 0.7 6.34 -1 6 C-1.33 5.01 -1.66 4.02 -2 3 C-1.34 2.01 -0.68 1.02 0 0 Z " fill="#F4F6F5" transform="translate(247,98)"/>
<path d="M0 0 C2.31 0 4.62 0 7 0 C7 1.65 7 3.3 7 5 C4.69 4.34 2.38 3.68 0 3 C0 2.01 0 1.02 0 0 Z " fill="#2162AC" transform="translate(91,107)"/>
<path d="M0 0 C0.33 0.66 0.66 1.32 1 2 C-1.80804268 4.96404505 -4.18315774 7.44499019 -8 9 C-8 8.34 -8 7.68 -8 7 C-7.21625 6.7525 -6.4325 6.505 -5.625 6.25 C-2.64259316 4.82980627 -2.1589951 3.99407067 -1 1 C-0.67 0.67 -0.34 0.34 0 0 Z " fill="#F1F2F1" transform="translate(64,84)"/>
<path d="M0 0 C-0.33 0.66 -0.66 1.32 -1 2 C-2.093125 1.95875 -3.18625 1.9175 -4.3125 1.875 C-8.08892229 1.67925334 -8.08892229 1.67925334 -11 4 C-11 3.01 -11 2.02 -11 1 C-6.92630576 -1.03684712 -4.41062136 -1.0257259 0 0 Z " fill="#F1F1F1" transform="translate(130,17)"/>
<path d="M0 0 C0 0.33 0 0.66 0 1 C-1.1446875 1.185625 -1.1446875 1.185625 -2.3125 1.375 C-5.20267136 1.88102792 -5.20267136 1.88102792 -8 4 C-8.99 3.67 -9.98 3.34 -11 3 C-11 2.34 -11 1.68 -11 1 C-7.32589215 -0.17571451 -3.83070817 -0.07366746 0 0 Z " fill="#295892" transform="translate(112,103)"/>
<path d="M0 0 C0.66 0 1.32 0 2 0 C2 0.66 2 1.32 2 2 C3.32 2.33 4.64 2.66 6 3 C3.35261084 4.4606285 2.10551666 5 -1 5 C-0.67 3.35 -0.34 1.7 0 0 Z " fill="#F3F3F3" transform="translate(34,44)"/>
</svg>
