<?xml version="1.0" encoding="UTF-8"?>
<svg version="1.1" xmlns="http://www.w3.org/2000/svg" width="728" height="336">
<path d="M0 0 C1.65491455 0.01099731 1.65491455 0.01099731 3.34326172 0.0222168 C11.56836214 0.22014051 17.44766712 1.43585005 24.625 5.5625 C26.3884375 6.1503125 26.3884375 6.1503125 28.1875 6.75 C34.92422781 10.30209285 40.30706293 16.17365711 45.625 21.5625 C45.955 20.9025 46.285 20.2425 46.625 19.5625 C47.285 19.5625 47.945 19.5625 48.625 19.5625 C48.85832031 18.985 49.09164062 18.4075 49.33203125 17.8125 C53.48733648 10.58151567 63.35607935 5.03721804 71.0625 2.375 C86.22891647 -1.08400726 102.8448542 -1.13444637 116.47265625 7.12109375 C129.82139725 16.06063173 138.65278956 26.75417601 142.625 42.5625 C143.41176242 47.32542955 143.75123665 51.89107587 143.75439453 56.71606445 C143.75702301 57.73225861 143.75702301 57.73225861 143.75970459 58.76898193 C143.7640721 60.98794183 143.76120221 63.20682067 143.7578125 65.42578125 C143.75848724 66.98365799 143.75945868 68.54153463 143.76071167 70.09941101 C143.76218194 73.35819505 143.76005655 76.61695159 143.75537109 79.87573242 C143.7496885 84.02788402 143.75294776 88.17997075 143.75894356 92.33211994 C143.7625795 95.54854306 143.76139648 98.76495114 143.75881577 101.98137474 C143.75815412 103.51099849 143.75894789 105.04062365 143.76129532 106.57024574 C143.770931 114.61604721 143.68351957 122.5732047 142.625 130.5625 C140.22793301 130.27907321 137.83268917 129.98606312 135.4375 129.6875 C134.76396484 129.60886719 134.09042969 129.53023437 133.39648438 129.44921875 C129.49618895 128.95454714 126.2299137 128.09152755 122.625 126.5625 C122.47436696 122.23340247 122.33268617 117.90410639 122.19885254 113.57446289 C122.14958638 111.9821482 122.09937358 110.38986252 122.04821777 108.79760742 C121.73801772 98.9394795 121.59552911 89.10479615 121.734375 79.2421875 C121.74500977 78.30726471 121.75564453 77.37234192 121.76660156 76.40908813 C121.81884218 71.84768094 121.89508083 67.28916738 122.01367188 62.72900391 C122.20704875 51.67110004 121.16673095 42.41781366 114.375 33.1875 C105.42308204 24.64248741 96.86462452 21.97787025 84.609375 22.2578125 C75.40850743 23.19716809 68.79298684 27.88894046 62.625 34.5625 C55.13605133 43.96722624 55.1907798 56.51925548 55.296875 67.94140625 C55.29994249 69.40388289 55.30181107 70.86636249 55.30255127 72.32884216 C55.30712201 75.37551281 55.32142098 78.42191438 55.34375 81.46850586 C55.37205448 85.34703428 55.38296867 89.2253524 55.3874321 93.10397434 C55.39261984 96.84147789 55.40712206 100.5789305 55.421875 104.31640625 C55.42469608 105.36426394 55.42469608 105.36426394 55.42757416 106.43329048 C55.4546027 114.20078519 55.63708268 121.85228547 56.625 129.5625 C51.77344606 131.0306055 47.65712592 130.07930603 42.8125 129.125 C42.02423828 128.97740234 41.23597656 128.82980469 40.42382812 128.67773438 C38.48930954 128.31427937 36.5569222 127.93951238 34.625 127.5625 C33.85074243 122.80063642 33.51786323 118.27821007 33.57495117 113.45654297 C33.58123032 112.78389908 33.58750946 112.11125519 33.59397888 111.41822815 C33.60773953 109.96907324 33.62365335 108.51993745 33.64153099 107.07082748 C33.66843456 104.76476036 33.6861401 102.45879301 33.70100403 100.15261841 C33.74347306 93.59928654 33.79092113 87.04614852 33.87182617 80.49316406 C33.9208078 76.47152523 33.94947281 72.45015607 33.96557045 68.42825699 C33.97536163 66.9094196 33.99240543 65.39060844 34.01735497 63.87194443 C34.18781156 53.25595015 34.09123813 41.40266543 26.875 32.875 C26.1325 32.111875 25.39 31.34875 24.625 30.5625 C24.625 29.9025 24.625 29.2425 24.625 28.5625 C21.5049628 26.98412824 18.35849958 25.47334932 15.1875 24 C14.26066406 23.56558594 13.33382812 23.13117188 12.37890625 22.68359375 C3.87132222 19.22022266 -4.02533966 19.71186812 -12.5 23 C-20.31892262 26.60742458 -25.76538109 31.52340922 -29.3125 39.4375 C-30.58324751 43.17499269 -31.5158609 46.24209752 -31.69140625 50.17602539 C-31.73338135 51.11280624 -31.77535645 52.0495871 -31.81860352 53.01475525 C-31.85783936 54.03211258 -31.8970752 55.04946991 -31.9375 56.09765625 C-32.00118774 57.6927578 -32.00118774 57.6927578 -32.06616211 59.32008362 C-32.50974655 71.54671442 -32.45029288 83.76759522 -32.375 96 C-32.34821382 100.45702872 -32.32838683 104.91401442 -32.3125 109.37109375 C-32.30420166 110.36491562 -32.29590332 111.35873749 -32.28735352 112.38267517 C-32.26698768 118.19615938 -32.62235044 123.79650803 -33.375 129.5625 C-40.08825445 129.78462974 -45.94390721 129.58710329 -52.375 127.5625 C-55.53940469 124.39809531 -54.49764502 116.04463616 -54.51052856 111.86314392 C-54.50850433 110.88164871 -54.5064801 109.9001535 -54.50439453 108.88891602 C-54.50614685 107.83760498 -54.50789917 106.78629395 -54.50970459 105.703125 C-54.51409225 102.24086844 -54.51119575 98.7786633 -54.5078125 95.31640625 C-54.50848648 92.9017689 -54.50945728 90.48713162 -54.51071167 88.07249451 C-54.51218451 83.01634067 -54.51004755 77.96020452 -54.50537109 72.90405273 C-54.49967713 66.433478 -54.50295335 59.96294477 -54.50894356 53.49237156 C-54.51256293 48.50717356 -54.51140419 43.52198534 -54.50881577 38.53678703 C-54.50815015 36.15143771 -54.50896212 33.76608749 -54.51129532 31.38073921 C-54.51384408 28.04229516 -54.50994976 24.70391763 -54.50439453 21.36547852 C-54.50641876 20.38600754 -54.50844299 19.40653656 -54.51052856 18.39738464 C-54.49406112 13.03623046 -54.33719671 7.84568106 -53.375 2.5625 C-50.90283743 1.32641871 -49.93279331 1.64739554 -47.2421875 2.12109375 C-46.03369141 2.32895508 -46.03369141 2.32895508 -44.80078125 2.54101562 C-43.95902344 2.69248047 -43.11726563 2.84394531 -42.25 3 C-40.97576172 3.22139648 -40.97576172 3.22139648 -39.67578125 3.44726562 C-37.57450389 3.81321842 -35.47461279 4.18711468 -33.375 4.5625 C-33.045 6.5425 -32.715 8.5225 -32.375 10.5625 C-31.76914062 10.17578125 -31.16328125 9.7890625 -30.5390625 9.390625 C-29.70117188 8.86984375 -28.86328125 8.3490625 -28 7.8125 C-27.18789063 7.30203125 -26.37578125 6.7915625 -25.5390625 6.265625 C-16.92369534 1.62821749 -9.81489223 -0.1334396 0 0 Z " fill="#2B2825" transform="translate(390.375,138.4375)"/>
<path d="M0 0 C2.02314766 0.03862103 4.04494404 0.15730339 6.0625 0.3125 C7.16722656 0.39113281 8.27195312 0.46976562 9.41015625 0.55078125 C13 1 13 1 21 3 C21 55.47 21 107.94 21 162 C17.21746694 162.94563327 14.88232329 163.01023412 11.0625 162.6875 C10.04285156 162.60886719 9.02320313 162.53023437 7.97265625 162.44921875 C4.76864648 161.96503856 1.37152803 161.37152803 -1 159 C-1.23363881 157.15108054 -1.41303635 155.29511969 -1.5625 153.4375 C-1.68818359 151.91962891 -1.68818359 151.91962891 -1.81640625 150.37109375 C-1.87699219 149.58863281 -1.93757813 148.80617187 -2 148 C-2.61746094 148.45890625 -3.23492187 148.9178125 -3.87109375 149.390625 C-9.39091544 153.38976522 -14.65002513 156.5504236 -21 159 C-21.79921875 159.37253906 -22.5984375 159.74507812 -23.421875 160.12890625 C-37.02450171 165.77045808 -54.69772313 164.87713552 -68.3359375 159.62109375 C-77.23876678 155.82296653 -84.93101027 151.68041114 -91 144 C-91.845625 143.360625 -92.69125 142.72125 -93.5625 142.0625 C-96.09539564 139.91928062 -97.44647126 137.81465004 -98.96875 134.88671875 C-99.95370928 132.98723514 -99.95370928 132.98723514 -101.21875 131.33203125 C-110.37897047 118.68087311 -110.92345106 99.74891861 -108.67041016 84.81542969 C-106.97526072 76.4449841 -103.61807532 67.74705706 -98.41015625 60.9140625 C-96.81268779 58.95158133 -96.81268779 58.95158133 -96 56 C-95.34 56 -94.68 56 -94 56 C-94 55.34 -94 54.68 -94 54 C-92.30336284 52.76910638 -90.60155208 51.54432651 -88.8671875 50.3671875 C-86.76681918 48.91351848 -86.76681918 48.91351848 -84.4375 46.3125 C-81.72518746 43.73928041 -79.58683794 42.91756319 -76 42 C-76 41.34 -76 40.68 -76 40 C-73.60539412 39.18372554 -71.20943474 38.37188355 -68.8125 37.5625 C-68.13896484 37.33240234 -67.46542969 37.10230469 -66.77148438 36.86523438 C-51.65851146 31.77842886 -32.67982985 31.21347615 -18.14453125 38.20703125 C-13.2999535 40.96934328 -8.57435998 43.80782073 -4 47 C-2.515 47.99 -2.515 47.99 -1 49 C-1.00222061 48.40087296 -1.00444122 47.80174591 -1.00672913 47.1844635 C-1.02878165 40.97202142 -1.04390646 34.75959038 -1.05493164 28.54711914 C-1.05997333 26.22582549 -1.06680651 23.90453503 -1.07543945 21.58325195 C-1.08751225 18.25471205 -1.09322979 14.92621398 -1.09765625 11.59765625 C-1.10281754 10.55287613 -1.10797882 9.50809601 -1.11329651 8.43165588 C-1.11337204 7.47073532 -1.11344757 6.50981476 -1.11352539 5.51977539 C-1.115746 4.66928116 -1.11796661 3.81878693 -1.12025452 2.94252014 C-1 1 -1 1 0 0 Z M-66 60 C-66.65484375 60.30679688 -67.3096875 60.61359375 -67.984375 60.9296875 C-72.88285653 63.55232584 -76.01921866 67.1119733 -79.375 71.4375 C-79.80393555 71.98712402 -80.23287109 72.53674805 -80.67480469 73.10302734 C-83.28739583 76.61115552 -84.81801258 79.80781099 -86 84 C-86.36351563 84.94488281 -86.72703125 85.88976562 -87.1015625 86.86328125 C-88.19012811 90.66379511 -88.38381398 94.26483967 -88.375 98.1875 C-88.37338867 98.93491455 -88.37177734 99.6823291 -88.37011719 100.45239258 C-88.07271831 113.98549938 -81.21262409 123.58944844 -72 133 C-62.93851924 140.28858235 -50.50743415 143.58761366 -39 143 C-36.39070225 142.3374936 -33.96330955 141.63416261 -31.4375 140.75 C-30.80392578 140.54503906 -30.17035156 140.34007812 -29.51757812 140.12890625 C-25.1237102 138.63562467 -21.64737064 136.80999279 -18 134 C-18 133.34 -18 132.68 -18 132 C-17.11828125 131.88011719 -17.11828125 131.88011719 -16.21875 131.7578125 C-10.11793179 129.67408234 -5.7344304 120.57013599 -3 115 C0.86940354 104.35914027 0.40717657 90.38274337 -4 80 C-9.58542007 69.01079955 -17.14073709 61.30972534 -28.76953125 56.9765625 C-41.9352911 52.99658673 -53.73929304 53.48014892 -66 60 Z " fill="#2B2825" transform="translate(154,105)"/>
<path d="M0 0 C4.13079803 2.70493881 7.86898558 5.64913838 11.4375 9.0625 C11.4375 9.7225 11.4375 10.3825 11.4375 11.0625 C12.0253125 11.29710937 12.613125 11.53171875 13.21875 11.7734375 C19.60837832 15.48572156 23.54558059 24.44081536 26.4375 31.0625 C26.71335937 31.67351562 26.98921875 32.28453125 27.2734375 32.9140625 C31.22922998 42.4314642 33.31222226 54.71983782 30.734375 64.81640625 C29.4375 67.0625 29.4375 67.0625 27.45991516 67.69578552 C23.22546297 68.2095584 19.04370811 68.19290464 14.78198242 68.17602539 C13.33248199 68.17624443 13.33248199 68.17624443 11.85369873 68.1764679 C8.66676573 68.17577248 5.47989152 68.1679974 2.29296875 68.16015625 C0.08051078 68.15829075 -2.1319476 68.15686747 -4.34440613 68.15586853 C-10.16243636 68.15205372 -15.98044156 68.14223225 -21.79846191 68.13116455 C-27.73738262 68.12092818 -33.67630738 68.11636614 -39.61523438 68.11132812 C-51.2643339 68.10060907 -62.91341487 68.08354506 -74.5625 68.0625 C-74.25924805 69.32940674 -73.95599609 70.59631348 -73.64355469 71.90161133 C-73.47297546 72.61424637 -73.30239624 73.32688141 -73.12664795 74.06111145 C-71.18034226 80.96588515 -66.01219819 85.78059428 -60.5625 90.0625 C-60.5625 90.7225 -60.5625 91.3825 -60.5625 92.0625 C-59.9025 92.31 -59.2425 92.5575 -58.5625 92.8125 C-56.17033306 93.80923623 -53.92466994 94.87956038 -51.625 96.0625 C-40.53268615 101.59832888 -29.13435543 101.07273015 -17.3515625 97.3671875 C-14.11623831 96.07032759 -11.8986449 94.60178794 -9.5625 92.0625 C-8.634375 91.505625 -7.70625 90.94875 -6.75 90.375 C-3.67382022 88.14326173 -2.8076338 86.9404229 -0.9375 83.8125 C1.07694148 80.90933433 1.88114477 80.16544762 5.4140625 79.51171875 C13.27962085 79.48356043 13.27962085 79.48356043 16.4375 81.0625 C17.97418865 81.28717831 19.51718054 81.47046805 21.0625 81.625 C22.28839844 81.75068359 22.28839844 81.75068359 23.5390625 81.87890625 C24.16554688 81.93949219 24.79203125 82.00007813 25.4375 82.0625 C24.90118874 86.62114568 23.08117306 89.36135772 20.4375 93.0625 C19.756875 94.114375 19.07625 95.16625 18.375 96.25 C16.83657176 98.48320228 15.52653956 100.35328581 13.4375 102.0625 C12.7775 102.0625 12.1175 102.0625 11.4375 102.0625 C11.18097656 102.66191406 10.92445313 103.26132813 10.66015625 103.87890625 C5.46359392 113.15966773 -8.44852485 117.58586813 -17.9375 120.265625 C-20.4647392 120.80766746 -20.4647392 120.80766746 -21.5625 122.0625 C-27.56303141 122.27885002 -33.56007927 122.16570904 -39.5625 122.0625 C-40.51640625 122.05734375 -41.4703125 122.0521875 -42.453125 122.046875 C-56.13783235 121.39522227 -69.41268281 113.27063664 -79.421875 104.41796875 C-80.5625 103.0625 -80.5625 103.0625 -80.5625 101.0625 C-82.0475 100.5675 -82.0475 100.5675 -83.5625 100.0625 C-93.74973589 88.04898093 -99.16385065 72.53402511 -99.125 56.9375 C-99.12330811 55.94411621 -99.12161621 54.95073242 -99.11987305 53.92724609 C-98.89132448 44.41993133 -96.50766948 36.63730209 -92.5625 28.0625 C-92.20285156 27.20914063 -91.84320313 26.35578125 -91.47265625 25.4765625 C-84.13118129 10.12872428 -69.27040448 0.02499089 -53.8828125 -5.7734375 C-36.60264977 -11.83165926 -15.71953187 -8.8920934 0 0 Z M-67.3515625 28.1328125 C-69.80958824 31.27204702 -69.80958824 31.27204702 -70.5625 35.0625 C-71.2225 35.0625 -71.8825 35.0625 -72.5625 35.0625 C-74.37752739 38.79932109 -74.89309914 41.07070257 -73.5625 45.0625 C-70.56802314 46.55973843 -67.4915842 46.21852636 -64.20703125 46.22363281 C-63.07024429 46.23108017 -63.07024429 46.23108017 -61.91049194 46.23867798 C-59.39865214 46.25330697 -56.88687543 46.26010178 -54.375 46.265625 C-52.63387042 46.27137456 -50.89274086 46.27713232 -49.15161133 46.28289795 C-45.49983423 46.29340915 -41.84807917 46.29925146 -38.19628906 46.30273438 C-33.50838265 46.30822825 -28.82076537 46.33227466 -24.13294983 46.36070633 C-20.53681576 46.37929142 -16.94075202 46.38453603 -13.34457397 46.38607025 C-11.61573704 46.38910521 -9.88690159 46.39716193 -8.15811157 46.41025543 C-5.74450368 46.42723492 -3.33161146 46.42545628 -0.91796875 46.41894531 C0.1605687 46.43276749 0.1605687 46.43276749 1.26089478 46.4468689 C3.45491112 46.46340151 3.45491112 46.46340151 6.4375 46.0625 C8.72837102 43.38760294 8.72837102 43.38760294 8.07421875 41.1875 C3.15720693 30.1798686 -5.11402412 20.07940226 -16.375 15.25 C-21.32785217 13.59904928 -26.37914554 13.31643956 -31.5625 13.0625 C-32.29210937 12.99804688 -33.02171875 12.93359375 -33.7734375 12.8671875 C-47.32304863 12.11163298 -58.64830201 18.06135385 -67.3515625 28.1328125 Z " fill="#2B2825" transform="translate(289.5625,146.9375)"/>
<path d="M0 0 C0.33 -3.96 0.66 -7.92 1 -12 C6.62770563 -14.25108225 6.62770563 -14.25108225 10.375 -13.25 C11.14457031 -13.05148438 11.91414062 -12.85296875 12.70703125 -12.6484375 C13.84205078 -12.32746094 13.84205078 -12.32746094 15 -12 C15.70511719 -11.80664062 16.41023437 -11.61328125 17.13671875 -11.4140625 C18.7624575 -10.95898756 20.38202477 -10.48195007 22 -10 C23.01137782 -4.14785635 23.14190554 1.52700654 23.12939453 7.45825195 C23.13202301 9.00113892 23.13202301 9.00113892 23.13470459 10.57519531 C23.13909223 13.96290798 23.13619532 17.35056808 23.1328125 20.73828125 C23.13348658 23.10328684 23.13445748 25.46829237 23.13571167 27.83329773 C23.13718459 32.78690247 23.13504766 37.74048916 23.13037109 42.6940918 C23.12468344 49.02546539 23.12794929 55.3567965 23.13394356 61.68816853 C23.13756809 66.57222307 23.13640173 71.45626764 23.13381577 76.34032249 C23.13315125 78.67377922 23.13395823 81.00723687 23.13629532 83.34069252 C23.13885191 86.61167396 23.13493867 89.882588 23.12939453 93.15356445 C23.13141876 94.1071434 23.13344299 95.06072235 23.13552856 96.04319763 C23.11668456 102.08398016 22.71139602 108.00138457 22 114 C15.09837158 114.18844793 8.63780254 114.11483476 2 112 C0.18884044 110.18884044 0.61800552 107.38721773 0.4375 104.9375 C0.31181641 103.28041016 0.31181641 103.28041016 0.18359375 101.58984375 C0.12300781 100.73519531 0.06242188 99.88054687 0 99 C-0.85980469 99.59167969 -1.71960938 100.18335938 -2.60546875 100.79296875 C-13.26536869 107.980648 -23.85560721 113.73711214 -37 114 C-37.67256836 114.02433105 -38.34513672 114.04866211 -39.03808594 114.07373047 C-55.95340877 114.66041013 -55.95340877 114.66041013 -64 111 C-64.78117188 110.7215625 -65.56234375 110.443125 -66.3671875 110.15625 C-75.23713652 106.95091017 -83.25444863 102.59101754 -89 95 C-89.763125 94.29875 -90.52625 93.5975 -91.3125 92.875 C-102.51624849 80.88959464 -108.70037603 63.93547955 -108.25390625 47.53515625 C-106.52568095 30.27949129 -101.07750768 14.45330842 -88.48046875 2.14453125 C-87 1 -87 1 -85 1 C-84.67 0.01 -84.34 -0.98 -84 -2 C-77.64077609 -6.63168144 -70.63418428 -10.93040965 -63 -13 C-62.04480469 -13.28746094 -61.08960938 -13.57492188 -60.10546875 -13.87109375 C-37.79451089 -19.71505827 -17.73022085 -14.06943565 0 0 Z M-65 11 C-65 11.66 -65 12.32 -65 13 C-65.721875 13.2475 -66.44375 13.495 -67.1875 13.75 C-75.7965914 17.57626284 -80.98103326 25.84688721 -84.375 34.375 C-88.12234576 45.94148279 -87.77478562 57.72235439 -82.68359375 68.88671875 C-81.52722006 70.98532285 -80.3322786 73.00948098 -79 75 C-78.34 75 -77.68 75 -77 75 C-77 75.66 -77 76.32 -77 77 C-76.34 77 -75.68 77 -75 77 C-74.814375 77.7425 -74.62875 78.485 -74.4375 79.25 C-72.69058442 82.59192546 -71.05306097 83.39742596 -67.75390625 85.0078125 C-66 86 -66 86 -64.5703125 87.51953125 C-62.59071076 89.38587219 -60.92561168 89.84461218 -58.3125 90.5625 C-56.98025391 90.92988281 -56.98025391 90.92988281 -55.62109375 91.3046875 C-54.75613281 91.53414063 -53.89117188 91.76359375 -53 92 C-52.28972656 92.20882812 -51.57945312 92.41765625 -50.84765625 92.6328125 C-40.24090015 95.61530629 -31.92571744 93.10868478 -22 89 C-11.422948 82.5435365 -3.58693999 74.02679877 0 62 C0.18175781 61.4225 0.36351562 60.845 0.55078125 60.25 C2.75931933 49.18810493 1.24728623 36.94702955 -4 27 C-4.66 27 -5.32 27 -6 27 C-6.17402344 26.11248047 -6.17402344 26.11248047 -6.3515625 25.20703125 C-8.38683255 18.27975669 -15.21585248 14.04587371 -21.0703125 10.5078125 C-25.58587081 8.18380516 -30.02827863 6.94039891 -35 6 C-35.77601563 5.82339844 -36.55203125 5.64679688 -37.3515625 5.46484375 C-46.15421056 3.94866858 -57.27243761 6.62104798 -65 11 Z " fill="#2B2825" transform="translate(653,154)"/>
<path d="M0 0 C0.96035156 0.18175781 1.92070313 0.36351563 2.91015625 0.55078125 C12.769033 2.3724239 22.63947322 3.79944146 32.59399414 4.99731445 C33.54266357 5.11421631 34.49133301 5.23111816 35.46875 5.3515625 C36.31888672 5.45291504 37.16902344 5.55426758 38.04492188 5.65869141 C40 6 40 6 41 7 C44.0035954 7.28627309 47.00740107 7.44865755 50.01953125 7.62109375 C53 8 53 8 57 10 C57 16.6 57 23.2 57 30 C49.19007491 30 49.19007491 30 45.26171875 29.09375 C39.80812527 27.92328293 34.34507214 27.18759831 28.8125 26.5 C27.31444824 26.30772827 27.31444824 26.30772827 25.78613281 26.11157227 C21.28526411 25.53428693 16.78307876 24.97154824 12.27734375 24.43359375 C11.58729248 24.34851563 10.89724121 24.2634375 10.1862793 24.17578125 C8.38013721 23.95351487 6.57291376 23.74008514 4.765625 23.52734375 C2 23 2 23 -1 21 C-1.35644531 19.06054688 -1.35644531 19.06054688 -1.328125 16.71875 C-1.32296875 15.87699219 -1.3178125 15.03523438 -1.3125 14.16796875 C-1.291875 13.28753906 -1.27125 12.40710938 -1.25 11.5 C-1.24484375 10.61957031 -1.2396875 9.73914063 -1.234375 8.83203125 C-1.15445938 2.30891876 -1.15445938 2.30891876 0 0 Z " fill="#2B2825" transform="translate(588,96)"/>
<path d="M0 0 C2.475 0.495 2.475 0.495 5 1 C5 2.65 5 4.3 5 6 C4.38125 6.20625 3.7625 6.4125 3.125 6.625 C0.15326441 8.54788774 0.01477942 10.68505388 -1 14 C-2.97963174 16.49605741 -3.89246389 16.96415463 -7 18 C-8.64820195 20.60242414 -9 21.86248779 -9 25 C-7.56426681 25.93489603 -6.12438031 26.86429494 -4.66015625 27.75390625 C-2.19593575 29.60352116 -0.72936507 31.94128838 0.921875 34.51171875 C1.94467707 36.16483068 1.94467707 36.16483068 4 37 C4 37.99 4 38.98 4 40 C2.02 40.495 2.02 40.495 0 41 C-0.66 40.01 -1.32 39.02 -2 38 C-3.3921875 37.38125 -3.3921875 37.38125 -4.8125 36.75 C-8.38017654 34.79127562 -9.5533417 33.08801737 -11.703125 29.765625 C-13.05874216 27.92002574 -14.426941 26.74663487 -16.25 25.375 C-19 23 -19 23 -19.875 20.1875 C-19.91625 19.465625 -19.9575 18.74375 -20 18 C-15.3451087 16.06046196 -15.3451087 16.06046196 -13.015625 15.65234375 C-10.43180266 14.81610667 -9.62020022 13.64852637 -8 11.5 C-5.85042713 8.64947945 -4.56855589 7.55374143 -1 7 C-0.67 4.69 -0.34 2.38 0 0 Z " fill="#9E9C96" transform="translate(38,242)"/>
<path d="M0 0 C3.46301965 5.19452947 3.12540578 11.05908414 3.12939453 17.15356445 C3.13114685 17.83102722 3.13289917 18.50848999 3.13470459 19.20648193 C3.1390721 21.42544183 3.13620221 23.64432067 3.1328125 25.86328125 C3.13348724 27.42115799 3.13445868 28.97903463 3.13571167 30.53691101 C3.13718194 33.79569505 3.13505655 37.05445159 3.13037109 40.31323242 C3.1246885 44.46538402 3.12794776 48.61747075 3.13394356 52.76961994 C3.1375795 55.98604306 3.13639648 59.20245114 3.13381577 62.41887474 C3.13315412 63.94849849 3.13394789 65.47812365 3.13629532 67.00774574 C3.145931 75.05354721 3.05851957 83.0107047 2 91 C0.20759337 90.88610125 -1.58394835 90.75852313 -3.375 90.625 C-4.87160156 90.52058594 -4.87160156 90.52058594 -6.3984375 90.4140625 C-9 90 -9 90 -11 88 C-7.30458414 87.04975021 -4.69541586 87.04975021 -1 88 C0.53206512 84.93586976 0.13850278 81.73069635 0.12939453 78.36914062 C0.13114685 77.58202194 0.13289917 76.79490326 0.13470459 75.9839325 C0.1391161 73.37468276 0.13618757 70.76550046 0.1328125 68.15625 C0.13348574 66.34785957 0.13445593 64.53946922 0.13571167 62.7310791 C0.13718769 58.93806091 0.13503714 55.14506624 0.13037109 51.35205078 C0.12467386 46.48264951 0.12795338 41.61330336 0.13394356 36.74390411 C0.13755174 33.00880516 0.1364094 29.27371934 0.13381577 25.53862 C0.13314721 23.74281304 0.13397244 21.94700491 0.13629532 20.15119934 C0.13882603 17.64438708 0.1349753 15.1376649 0.12939453 12.63085938 C0.13243088 11.51024361 0.13243088 11.51024361 0.13552856 10.36698914 C0.18500223 6.55718629 0.18500223 6.55718629 -1 3 C-0.67 2.01 -0.34 1.02 0 0 Z " fill="#1E1D1A" transform="translate(531,178)"/>
<path d="M0 0 C2.08558433 0.03829463 4.16992359 0.15626108 6.25 0.3125 C7.38953125 0.39113281 8.5290625 0.46976562 9.703125 0.55078125 C12.79821382 0.97250544 15.17709392 1.69997746 18 3 C14.32589215 4.17571451 10.83070817 4.07366746 7 4 C6.67 4.66 6.34 5.32 6 6 C4.35 5.67 2.7 5.34 1 5 C1 14.57 1 24.14 1 34 C0.01 34.495 0.01 34.495 -1 35 C-1.0246519 30.17619198 -1.04283693 25.35242033 -1.05493164 20.52856445 C-1.05997174 18.88630536 -1.06680378 17.24405077 -1.07543945 15.60180664 C-1.08751926 13.24624521 -1.09323139 10.89074291 -1.09765625 8.53515625 C-1.10281754 7.79660904 -1.10797882 7.05806183 -1.11329651 6.2971344 C-1.1134925 4.53101912 -1.06194719 2.76502854 -1 1 C-0.67 0.67 -0.34 0.34 0 0 Z " fill="#322F2D" transform="translate(154,105)"/>
<path d="M0 0 C4.51659796 -0.02496844 9.03315791 -0.04298537 13.54980469 -0.05493164 C15.08203838 -0.05991896 16.61426742 -0.06671122 18.14648438 -0.07543945 C26.49179593 -0.12174177 34.70373415 -0.04734171 43 1 C41.68 1.33 40.36 1.66 39 2 C39 2.66 39 3.32 39 4 C38.19691406 3.83757812 37.39382812 3.67515625 36.56640625 3.5078125 C32.32286675 2.90358453 28.21642303 2.85393885 23.9375 2.875 C23.14794922 2.87113281 22.35839844 2.86726562 21.54492188 2.86328125 C17.54064229 2.86999421 13.92372824 3.12481898 10 4 C7.4375 3.625 7.4375 3.625 5 3 C4.2575 2.855625 3.515 2.71125 2.75 2.5625 C2.1725 2.376875 1.595 2.19125 1 2 C0.67 1.34 0.34 0.68 0 0 Z " fill="#211D1A" transform="translate(216,192)"/>
<path d="M0 0 C0.99 0.33 1.98 0.66 3 1 C3 3.64 3 6.28 3 9 C4.65 9.33 6.3 9.66 8 10 C6.35 11.65 4.7 13.3 3 15 C3.66 16.32 4.32 17.64 5 19 C4.01 19.66 3.02 20.32 2 21 C1.42251197 22.96361864 1.42251197 22.96361864 1.3125 25.125 C1.209375 26.40375 1.10625 27.6825 1 29 C0.67 29 0.34 29 0 29 C0 19.43 0 9.86 0 0 Z " fill="#24221F" transform="translate(424,219)"/>
<path d="M0 0 C2.475 0.99 2.475 0.99 5 2 C4.54177532 5.46941546 4.10868317 8.67395049 3 12 C2.931009 14.06145107 2.91532273 16.12501401 2.9375 18.1875 C2.94652344 19.27417969 2.95554687 20.36085937 2.96484375 21.48046875 C2.97644531 22.31191406 2.98804688 23.14335937 3 24 C2.34 24 1.68 24 1 24 C1 25.65 1 27.3 1 29 C0.67 29 0.34 29 0 29 C0 19.43 0 9.86 0 0 Z " fill="#1A1916" transform="translate(336,209)"/>
<path d="M0 0 C0.33 0 0.66 0 1 0 C0.67 5.94 0.34 11.88 0 18 C-11.71428571 18.14285714 -11.71428571 18.14285714 -17 17 C-15.9375 15.4375 -15.9375 15.4375 -14 14 C-10.6875 14.25 -10.6875 14.25 -7 15 C-5.2984375 15.2784375 -5.2984375 15.2784375 -3.5625 15.5625 C-2.716875 15.706875 -1.87125 15.85125 -1 16 C-1.09539063 15.34773438 -1.19078125 14.69546875 -1.2890625 14.0234375 C-1.95354181 8.78486807 -2.21793267 4.95773184 0 0 Z " fill="#161614" transform="translate(675,250)"/>
<path d="M0 0 C1.65 0.33 3.3 0.66 5 1 C5 2.65 5 4.3 5 6 C4.360625 6.226875 3.72125 6.45375 3.0625 6.6875 C0.72806339 7.85250896 0.72806339 7.85250896 0.25 10.625 C0.1675 11.40875 0.085 12.1925 0 13 C-0.66 12.01 -1.32 11.02 -2 10 C-2.99 10 -3.98 10 -5 10 C-5 9.34 -5 8.68 -5 8 C-3.68 7.67 -2.36 7.34 -1 7 C-0.67 4.69 -0.34 2.38 0 0 Z " fill="#AFAEA9" transform="translate(38,242)"/>
<path d="M0 0 C1.19496094 0.24556641 1.19496094 0.24556641 2.4140625 0.49609375 C6.76795599 1.10791538 10.9863942 1.10799591 15.375 1.0625 C16.62216797 1.05573242 16.62216797 1.05573242 17.89453125 1.04882812 C19.92971897 1.03713164 21.96486923 1.01919935 24 1 C24 1.66 24 2.32 24 3 C16.08 3 8.16 3 0 3 C0 2.01 0 1.02 0 0 Z " fill="#1C1918" transform="translate(598,265)"/>
<path d="M0 0 C0.9178125 0.05220703 1.835625 0.10441406 2.78125 0.15820312 C5.02129261 0.2865389 7.26072975 0.42142597 9.5 0.5625 C9.5 0.8925 9.5 1.2225 9.5 1.5625 C8.5821875 1.62308594 7.664375 1.68367187 6.71875 1.74609375 C-1.16751642 2.25015989 -1.16751642 2.25015989 -9 3.25 C-12.75670526 3.58542011 -15.05643699 3.02601428 -18.5 1.5625 C-18.5 1.2325 -18.5 0.9025 -18.5 0.5625 C-12.21187205 -0.42920242 -6.34227619 -0.40100147 0 0 Z " fill="#221F1C" transform="translate(278.5,192.4375)"/>
<path d="M0 0 C2.51083114 1.25541557 2.87125446 2.50063488 4 5 C3.34 5 2.68 5 2 5 C2 11.6 2 18.2 2 25 C1.34 25 0.68 25 0 25 C0 16.75 0 8.5 0 0 Z " fill="#24221F" transform="translate(425,193)"/>
<path d="M0 0 C0.33 0.99 0.66 1.98 1 3 C2.32 2.34 3.64 1.68 5 1 C4.835 1.9075 4.67 2.815 4.5 3.75 C3.89862854 7.11087503 3.89862854 7.11087503 4 11 C3.34 11 2.68 11 2 11 C1.67 12.32 1.34 13.64 1 15 C0.15318867 9.91913204 -0.09038099 5.15171623 0 0 Z " fill="#282723" transform="translate(336,250)"/>
<path d="M0 0 C0.33 0 0.66 0 1 0 C1 9.57 1 19.14 1 29 C0.67 29 0.34 29 0 29 C-0.39586546 25.29358621 -0.76295365 21.58485771 -1.125 17.875 C-1.23714844 16.82828125 -1.34929688 15.7815625 -1.46484375 14.703125 C-1.97700683 9.30834059 -2.36194409 5.05630994 0 0 Z " fill="#110F0E" transform="translate(675,189)"/>
<path d="M0 0 C0.99 0.66 1.98 1.32 3 2 C2.34 2 1.68 2 1 2 C1.50603992 4.16874252 1.99983813 5.99967627 3 8 C2.0625 10.625 2.0625 10.625 1 13 C0.34 13 -0.32 13 -1 13 C-1.33 14.32 -1.66 15.64 -2 17 C-1.85978195 14.35375716 -1.71310224 11.70815422 -1.5625 9.0625 C-1.52318359 8.30775391 -1.48386719 7.55300781 -1.44335938 6.77539062 C-1.11328125 1.11328125 -1.11328125 1.11328125 0 0 Z " fill="#1E1C19" transform="translate(338,140)"/>
<path d="M0 0 C0.61875 0.804375 1.2375 1.60875 1.875 2.4375 C3.74164041 5.03874519 3.74164041 5.03874519 6 6 C6 6.99 6 7.98 6 9 C4.68 9.33 3.36 9.66 2 10 C1.34 9.01 0.68 8.02 0 7 C-1.96752828 5.93753473 -3.96587579 4.92862192 -6 4 C-3.50907189 2.75453595 -2.58919267 3.2232422 0 4 C0 2.68 0 1.36 0 0 Z " fill="#878784" transform="translate(36,273)"/>
<path d="M0 0 C1.32096771 0.18311413 2.64260259 0.36147616 3.96484375 0.53515625 C4.61904297 0.62216797 5.27324219 0.70917969 5.94726562 0.79882812 C6.60404297 0.88583984 7.26082031 0.97285156 7.9375 1.0625 C8.62134766 1.15337891 9.30519531 1.24425781 10.00976562 1.33789062 C11.67313669 1.55889797 13.33656255 1.77949285 15 2 C15 2.33 15 2.66 15 3 C-2.49526726 3.24679844 -2.49526726 3.24679844 -8 2 C-8.33 1.34 -8.66 0.68 -9 0 C-5.91340414 -1.54329793 -3.36471005 -0.54663806 0 0 Z " fill="#191917" transform="translate(248,266)"/>
<path d="M0 0 C-1.65 1.32 -3.3 2.64 -5 4 C-5.66 3.34 -6.32 2.68 -7 2 C-8.671549 2.30791692 -10.33805547 2.64386903 -12 3 C-14.3125 2.5625 -14.3125 2.5625 -16 2 C-10.68121594 -1.06852926 -5.92899233 -1.27049836 0 0 Z " fill="#21201E" transform="translate(610,139)"/>
<path d="M0 0 C0.66 0 1.32 0 2 0 C2.33 0.66 2.66 1.32 3 2 C3.99 2 4.98 2 6 2 C5.54177532 5.46941546 5.10868317 8.67395049 4 12 C1.57869669 9.57869669 1.47159496 8.19888623 0.875 4.875 C0.70742187 3.96492187 0.53984375 3.05484375 0.3671875 2.1171875 C0.24601563 1.41851562 0.12484375 0.71984375 0 0 Z " fill="#26221F" transform="translate(192,216)"/>
<path d="M0 0 C0 0.66 0 1.32 0 2 C-6.93 1.505 -6.93 1.505 -14 1 C-14 0.34 -14 -0.32 -14 -1 C-9.32178992 -3.33910504 -4.73360784 -1.48505344 0 0 Z " fill="#373533" transform="translate(605,118)"/>
<path d="M0 0 C4.455 0.99 4.455 0.99 9 2 C8.34 3.32 7.68 4.64 7 6 C4 5 4 5 2 3 C1.01 3.99 0.02 4.98 -1 6 C-0.67 4.02 -0.34 2.04 0 0 Z " fill="#231F1D" transform="translate(588,96)"/>
<path d="M0 0 C2 2 2 2 2.125 5.125 C2.08375 6.07375 2.0425 7.0225 2 8 C-1.37817425 8.84454356 -3.67465243 9.10844919 -7 8 C-6.67 7.34 -6.34 6.68 -6 6 C-4.35 6 -2.7 6 -1 6 C-0.67 4.02 -0.34 2.04 0 0 Z " fill="#1F1918" transform="translate(445,260)"/>
<path d="M0 0 C2.125 0.375 2.125 0.375 4 1 C2.9024777 3.99324263 2.32317108 4.84610901 -0.625 6.25 C-1.40875 6.4975 -2.1925 6.745 -3 7 C-2.25 2.25 -2.25 2.25 0 0 Z " fill="#A7A39E" transform="translate(31,252)"/>
<path d="M0 0 C2.02408755 0.09002398 4.04544287 0.24641038 6.0625 0.4375 C7.71958984 0.59025391 7.71958984 0.59025391 9.41015625 0.74609375 C10.26480469 0.82988281 11.11945312 0.91367187 12 1 C11.67 1.99 11.34 2.98 11 4 C9.37419034 3.88601335 7.74932843 3.75844341 6.125 3.625 C5.22007812 3.55539062 4.31515625 3.48578125 3.3828125 3.4140625 C1 3 1 3 -1 1 C-0.67 0.67 -0.34 0.34 0 0 Z " fill="#181716" transform="translate(521,265)"/>
<path d="M0 0 C0.33 0 0.66 0 1 0 C1 2.31 1 4.62 1 7 C-3.08443115 8.53166168 -6.79455657 7.63081652 -11 7 C-10.67 6.34 -10.34 5.68 -10 5 C-7.03 5 -4.06 5 -1 5 C-0.67 3.35 -0.34 1.7 0 0 Z " fill="#141312" transform="translate(174,260)"/>
<path d="M0 0 C0.66 0 1.32 0 2 0 C2.33 1.65 2.66 3.3 3 5 C2.195625 5.12375 1.39125 5.2475 0.5625 5.375 C-0.7059375 5.684375 -0.7059375 5.684375 -2 6 C-2.33 6.66 -2.66 7.32 -3 8 C-3.33 7.34 -3.66 6.68 -4 6 C-5.64363134 5.27840576 -7.31050386 4.60648579 -9 4 C-6.29120665 2.64560332 -3.99066732 2.93498549 -1 3 C-0.67 2.01 -0.34 1.02 0 0 Z " fill="#1C1715" transform="translate(297,189)"/>
<path d="M0 0 C0.33 0 0.66 0 1 0 C1.33 5.61 1.66 11.22 2 17 C1.01 17 0.02 17 -1 17 C-0.67 11.39 -0.34 5.78 0 0 Z " fill="#171614" transform="translate(674,160)"/>
<path d="M0 0 C0.99 0.33 1.98 0.66 3 1 C3.33 3.31 3.66 5.62 4 8 C1.525 7.01 1.525 7.01 -1 6 C-0.67 4.02 -0.34 2.04 0 0 Z " fill="#B4B3AF" transform="translate(30,268)"/>
<path d="M0 0 C1.93651019 0.06533435 3.87502861 0.08584303 5.8125 0.0625 C6.78832031 0.05347656 7.76414062 0.04445313 8.76953125 0.03515625 C9.50558594 0.02355469 10.24164063 0.01195312 11 0 C11.33 0.66 11.66 1.32 12 2 C9.20807795 2.05380578 6.4171859 2.09357669 3.625 2.125 C2.8309375 2.14175781 2.036875 2.15851563 1.21875 2.17578125 C-0.85492015 2.19335473 -2.92883241 2.10335168 -5 2 C-5.66 1.34 -6.32 0.68 -7 0 C-4.29965905 -1.35017047 -2.93091379 -0.60625178 0 0 Z " fill="#181614" transform="translate(103,266)"/>
<path d="M0 0 C3 2 3 2 3.75 4.5 C4 7 4 7 3 9 C2.01 8.67 1.02 8.34 0 8 C0 5.36 0 2.72 0 0 Z " fill="#1A1815" transform="translate(336,170)"/>
<path d="M0 0 C2.51083114 1.25541557 2.87125446 2.50063488 4 5 C3.01 5.66 2.02 6.32 1 7 C0.42251197 8.96361864 0.42251197 8.96361864 0.3125 11.125 C0.209375 12.40375 0.10625 13.6825 0 15 C-0.33 15 -0.66 15 -1 15 C-1.10251672 9.87416389 -1.03590199 5.05002222 0 0 Z " fill="#171614" transform="translate(425,233)"/>
<path d="M0 0 C3.32901247 2.21934164 3.75023244 3.34683329 5 7 C2 7 2 7 -0.1875 5.125 C-2 3 -2 3 -2 1 C-1.34 0.67 -0.68 0.34 0 0 Z " fill="#23201E" transform="translate(643,170)"/>
<path d="M0 0 C2 2 2 2 2.1953125 4.1640625 C2.16050781 5.38222656 2.16050781 5.38222656 2.125 6.625 C2.10695313 7.44226563 2.08890625 8.25953125 2.0703125 9.1015625 C2.04710937 9.72804687 2.02390625 10.35453125 2 11 C1.67 10.01 1.34 9.02 1 8 C0.34 8 -0.32 8 -1 8 C-1.04241723 5.66705225 -1.04092937 3.33297433 -1 1 C-0.67 0.67 -0.34 0.34 0 0 Z " fill="#14110F" transform="translate(674,227)"/>
<path d="M0 0 C3.92300495 2.35380297 4.83857315 4.64464931 6 9 C5.01 9.495 5.01 9.495 4 10 C0 3.375 0 3.375 0 0 Z " fill="#1B1817" transform="translate(49,227)"/>
<path d="M0 0 C1.32 0.66 2.64 1.32 4 2 C3.67 2.99 3.34 3.98 3 5 C1.02 4.34 -0.96 3.68 -3 3 C-2.01 2.01 -1.02 1.02 0 0 Z " fill="#211F1D" transform="translate(582,258)"/>
<path d="M0 0 C3.77545388 1.09068668 6.47043472 1.9083091 9 5 C8.67 5.66 8.34 6.32 8 7 C1.125 3.375 1.125 3.375 0 0 Z " fill="#191716" transform="translate(67,252)"/>
<path d="M0 0 C0.33 0.99 0.66 1.98 1 3 C2.32 2.34 3.64 1.68 5 1 C4.1875 3.9375 4.1875 3.9375 3 7 C2.01 7.33 1.02 7.66 0 8 C0 5.36 0 2.72 0 0 Z " fill="#161613" transform="translate(336,250)"/>
<path d="M0 0 C0.99 0.33 1.98 0.66 3 1 C2.67 3.64 2.34 6.28 2 9 C1.34 9 0.68 9 0 9 C0 6.03 0 3.06 0 0 Z " fill="#332F2C" transform="translate(153,251)"/>
<path d="M0 0 C2.97 0.495 2.97 0.495 6 1 C6 1.66 6 2.32 6 3 C6.66 3.33 7.32 3.66 8 4 C4.7 3.67 1.4 3.34 -2 3 C-1.34 2.01 -0.68 1.02 0 0 Z " fill="#121110" transform="translate(660,264)"/>
<path d="M0 0 C1.32 0 2.64 0 4 0 C4 1.65 4 3.3 4 5 C3.01 5.33 2.02 5.66 1 6 C0.67 4.02 0.34 2.04 0 0 Z " fill="#93928E" transform="translate(39,243)"/>
<path d="M0 0 C0.66 0 1.32 0 2 0 C2 2.97 2 5.94 2 9 C1.01 8.67 0.02 8.34 -1 8 C-1.04241723 5.66705225 -1.04092937 3.33297433 -1 1 C-0.67 0.67 -0.34 0.34 0 0 Z " fill="#191816" transform="translate(674,149)"/>
<path d="M0 0 C0.66 1.32 1.32 2.64 2 4 C1.34 4 0.68 4 0 4 C0 2.68 0 1.36 0 0 Z " fill="#1B1B1B" transform="translate(358,144)"/>
</svg>
