<?xml version="1.0" encoding="UTF-8"?>
<svg version="1.1" xmlns="http://www.w3.org/2000/svg" width="215" height="119">
<path d="M0 0 C1.32 0.33 2.64 0.66 4 1 C4.495 2.98 4.495 2.98 5 5 C7.475 5.495 7.475 5.495 10 6 C9.67 7.65 9.34 9.3 9 11 C9.66 11 10.32 11 11 11 C10.855625 11.55429687 10.71125 12.10859375 10.5625 12.6796875 C10.2840625 13.76636719 10.2840625 13.76636719 10 14.875 C9.7215625 15.95394531 9.7215625 15.95394531 9.4375 17.0546875 C8.92686035 18.99289317 8.92686035 18.99289317 9 21 C10.32 20.34 11.64 19.68 13 19 C12.94199219 18.40832031 12.88398437 17.81664063 12.82421875 17.20703125 C12.56677945 12.69816571 12.52866549 10.65463126 15.25 6.875 C18 5 18 5 19.9375 4.9375 C22.88233116 6.45453423 25.4244883 7.89276315 28 10 C28.1875 12.5 28.1875 12.5 28 15 C29.39957197 17.28484306 29.39957197 17.28484306 31 19 C26.7357974 24.72621492 26.7357974 24.72621492 23.3125 26 C22.549375 26 21.78625 26 21 26 C20.34 25.34 19.68 24.68 19 24 C19 29.28 19 34.56 19 40 C22.63 40 26.26 40 30 40 C31.6439903 44.10997575 32.26290113 45.66462981 32.1875 49.75 C32.18105469 50.52859375 32.17460938 51.3071875 32.16796875 52.109375 C32 54 32 54 31 55 C29.33382885 55.04063832 27.66611905 55.042721 26 55 C26.495 58.96 26.495 58.96 27 63 C26.01 63.33 25.02 63.66 24 64 C23.01 63.34 22.02 62.68 21 62 C20.76925781 62.61359375 20.53851563 63.2271875 20.30078125 63.859375 C18.14856737 67.4011564 15.00906479 67.97901266 11.203125 69.234375 C1.73357674 71.497828 -6.38185289 70.35277613 -15 66 C-15.66 65.67 -16.32 65.34 -17 65 C-17.33 64.01 -17.66 63.02 -18 62 C-18.61875 62.350625 -19.2375 62.70125 -19.875 63.0625 C-20.57625 63.371875 -21.2775 63.68125 -22 64 C-22.66 63.67 -23.32 63.34 -24 63 C-23.67 60.36 -23.34 57.72 -23 55 C-24.65 55 -26.3 55 -28 55 C-29.41582579 49.50501181 -28.23971466 45.46932937 -27 40 C-23.37 40 -19.74 40 -16 40 C-16 34.72 -16 29.44 -16 24 C-16.66 24.66 -17.32 25.32 -18 26 C-21.14397871 25.89158694 -22.35151428 24.71097715 -24.8125 22.6875 C-27 20 -27 20 -26.9375 18.125 C-26.628125 17.42375 -26.31875 16.7225 -26 16 C-25.649375 14.7625 -25.29875 13.525 -24.9375 12.25 C-24.628125 11.1775 -24.31875 10.105 -24 9 C-22.68 9 -21.36 9 -20 9 C-19.67 8.01 -19.34 7.02 -19 6 C-17.25 5 -17.25 5 -15 5 C-12.25 7 -12.25 7 -10 10 C-9.64798897 13.46144178 -9.43064406 15.86128812 -11 19 C-9.35 19.66 -7.7 20.32 -6 21 C-6.0721875 20.32453125 -6.144375 19.6490625 -6.21875 18.953125 C-6.3115625 18.06109375 -6.404375 17.1690625 -6.5 16.25 C-6.5928125 15.36828125 -6.685625 14.4865625 -6.78125 13.578125 C-7 11 -7 11 -7 7 C-5.824375 6.6596875 -5.824375 6.6596875 -4.625 6.3125 C-1.78125 5.21875 -1.78125 5.21875 -0.6875 2.375 C-0.460625 1.59125 -0.23375 0.8075 0 0 Z M-16 12 C-15 14 -15 14 -15 14 Z M-23 46 C-23.33 47.32 -23.66 48.64 -24 50 C-23.01 50.495 -23.01 50.495 -22 51 C-21.01 50.67 -20.02 50.34 -19 50 C-19 48.68 -19 47.36 -19 46 C-20.32 46 -21.64 46 -23 46 Z M23 46 C22.67 47.32 22.34 48.64 22 50 C23.32 50.33 24.64 50.66 26 51 C26.33 49.68 26.66 48.36 27 47 C25.68 46.67 24.36 46.34 23 46 Z M-14 55 C-13.67 55.99 -13.34 56.98 -13 58 C-12.34 57.67 -11.68 57.34 -11 57 C-11.99 56.34 -12.98 55.68 -14 55 Z M-20 57 C-19 59 -19 59 -19 59 Z M22 57 C23 59 23 59 23 59 Z M-10 58 C-9.20882096 59.99983534 -9.20882096 59.99983534 -8 62 C-4.6546121 63.1151293 -2.08241188 63.13299072 1.4375 63.125 C2.57058594 63.12757812 3.70367187 63.13015625 4.87109375 63.1328125 C7.45221183 63.02325193 9.54944405 62.75864877 12 62 C12 61.01 12 60.02 12 59 C7.59913426 58.22337663 4.3373027 58.08688364 0 59 C-1.67422986 58.70700977 -3.34178227 58.37309899 -5 58 C-6.6662553 57.9629721 -8.33401319 57.95240038 -10 58 Z " fill="#306E91" transform="translate(80,31)"/>
<path d="M0 0 C13 0 13 0 18 2 C18.66 2.66 19.32 3.32 20 4 C20.33 2.68 20.66 1.36 21 0 C22.98 0 24.96 0 27 0 C27.06058594 1.19238281 27.12117188 2.38476562 27.18359375 3.61328125 C27.26801149 5.17969925 27.35265887 6.74610488 27.4375 8.3125 C27.47681641 9.09818359 27.51613281 9.88386719 27.55664062 10.69335938 C27.59853516 11.45068359 27.64042969 12.20800781 27.68359375 12.98828125 C27.72025146 13.68477783 27.75690918 14.38127441 27.79467773 15.09887695 C27.95581153 17.2216572 27.95581153 17.2216572 29 20 C30.66611905 20.042721 32.33382885 20.04063832 34 20 C35.51062693 18.48937307 35.19532457 17.10608711 35.28125 15 C35.31863281 14.195625 35.35601562 13.39125 35.39453125 12.5625 C35.42933594 11.716875 35.46414062 10.87125 35.5 10 C35.56860509 8.33315029 35.64130223 6.66646226 35.71875 5 C35.74904297 4.2575 35.77933594 3.515 35.81054688 2.75 C36 1 36 1 37 0 C38.66617115 -0.04063832 40.33388095 -0.042721 42 0 C42.66 2.31 43.32 4.62 44 7 C44.61875 5.824375 44.61875 5.824375 45.25 4.625 C47.1377332 1.7934002 47.7896575 0.95442615 51 0 C55.30413694 -0.34159817 57.94849554 -0.42507627 61.9375 1.1875 C64.43253722 3.38010847 64.73593684 4.74322102 65 8 C63.02 8.33 61.04 8.66 59 9 C58.34 8.01 57.68 7.02 57 6 C55.35 6.33 53.7 6.66 52 7 C51.7763663 8.41433206 51.57173524 9.83167618 51.375 11.25 C51.25898438 12.03890625 51.14296875 12.8278125 51.0234375 13.640625 C50.99680605 16.32152459 51.63407916 17.72694089 53 20 C55.47266765 19.65555119 55.47266765 19.65555119 58 19 C58.33 18.34 58.66 17.68 59 17 C60.65 17 62.3 17 64 17 C64.495 19.475 64.495 19.475 65 22 C61.82139956 25.17860044 59.60271512 27.35945874 55 27.625 C49.44856386 27.28468208 46.77180797 23.77180797 43 20 C42.38125 20.969375 41.7625 21.93875 41.125 22.9375 C39 26 39 26 37 27 C32.08003072 27.53118252 28.22672403 27.75105553 23.9375 25.125 C21.24078701 22.16731479 20.82739246 20.27392457 20.4375 16.375 C20.35371094 15.55773437 20.26992187 14.74046875 20.18359375 13.8984375 C20.12300781 13.27195312 20.06242187 12.64546875 20 12 C19.401875 12.639375 18.80375 13.27875 18.1875 13.9375 C14.40764294 17.50136523 10.98143974 17.09398943 6 17 C6 20.3 6 23.6 6 27 C4.02 27 2.04 27 0 27 C0 18.09 0 9.18 0 0 Z M6 6 C6 7.65 6 9.3 6 11 C8.31 11 10.62 11 13 11 C13.59070014 9.05396726 13.59070014 9.05396726 14 7 C12.81575674 5.58422523 12.81575674 5.58422523 9.4375 5.9375 C7.7359375 5.9684375 7.7359375 5.9684375 6 6 Z " fill="#112B63" transform="translate(116,49)"/>
<path d="M0 0 C4.29 0 8.58 0 13 0 C13.13020833 2.79947917 13.26041667 5.59895833 13.390625 8.3984375 C13.72160885 11.1526477 13.72160885 11.1526477 16.046875 12.3515625 C16.69140625 12.56554687 17.3359375 12.77953125 18 13 C18 13.66 18 14.32 18 15 C18.99 15.33 19.98 15.66 21 16 C21.2165625 15.1028125 21.2165625 15.1028125 21.4375 14.1875 C21.8872439 12.43849596 22.42892341 10.71322977 23 9 C24.32 9 25.64 9 27 9 C27 8.34 27 7.68 27 7 C28.32 7.33 29.64 7.66 31 8 C31 8.66 31 9.32 31 10 C32.32 9.01 33.64 8.02 35 7 C36.42258812 10.82320557 37.24042276 13.91281305 37 18 C32.40767665 19.82855428 29.02641732 20.12514462 24.125 19.625 C22.97257812 19.51414062 21.82015625 19.40328125 20.6328125 19.2890625 C19.76398438 19.19367188 18.89515625 19.09828125 18 19 C18.33 19.66 18.66 20.32 19 21 C21.70716242 21.90238747 23.23776768 22.11851302 26.01171875 22.09765625 C26.76904297 22.09443359 27.52636719 22.09121094 28.30664062 22.08789062 C29.09232422 22.07951172 29.87800781 22.07113281 30.6875 22.0625 C31.48478516 22.05798828 32.28207031 22.05347656 33.10351562 22.04882812 C35.06904257 22.0370585 37.03453085 22.01912348 39 22 C39 21.01 39 20.02 39 19 C39.64453125 18.78601563 40.2890625 18.57203125 40.953125 18.3515625 C43.27839115 17.1526477 43.27839115 17.1526477 43.609375 14.3984375 C43.65578125 13.40070313 43.7021875 12.40296875 43.75 11.375 C43.83507812 9.87066406 43.83507812 9.87066406 43.921875 8.3359375 C43.96054688 7.17964844 43.96054688 7.17964844 44 6 C44.66 6 45.32 6 46 6 C46 4.35 46 2.7 46 1 C49.63 0.67 53.26 0.34 57 0 C58.6439903 4.10997575 59.26290113 5.66462981 59.1875 9.75 C59.18105469 10.52859375 59.17460938 11.3071875 59.16796875 12.109375 C59 14 59 14 58 15 C56.33382885 15.04063832 54.66611905 15.042721 53 15 C53.495 18.96 53.495 18.96 54 23 C53.01 23.33 52.02 23.66 51 24 C50.01 23.34 49.02 22.68 48 22 C47.76925781 22.61359375 47.53851563 23.2271875 47.30078125 23.859375 C45.14856737 27.4011564 42.00906479 27.97901266 38.203125 29.234375 C28.73357674 31.497828 20.61814711 30.35277613 12 26 C11.34 25.67 10.68 25.34 10 25 C9.67 24.01 9.34 23.02 9 22 C8.38125 22.350625 7.7625 22.70125 7.125 23.0625 C6.073125 23.5265625 6.073125 23.5265625 5 24 C4.34 23.67 3.68 23.34 3 23 C3.33 20.36 3.66 17.72 4 15 C2.35 15 0.7 15 -1 15 C-2.41582579 9.50501181 -1.23971466 5.46932937 0 0 Z M4 6 C3.67 7.32 3.34 8.64 3 10 C3.99 10.495 3.99 10.495 5 11 C5.99 10.67 6.98 10.34 8 10 C8 8.68 8 7.36 8 6 C6.68 6 5.36 6 4 6 Z M50 6 C49.67 7.32 49.34 8.64 49 10 C50.32 10.33 51.64 10.66 53 11 C53.33 9.68 53.66 8.36 54 7 C52.68 6.67 51.36 6.34 50 6 Z M13 15 C13.33 15.99 13.66 16.98 14 18 C14.66 17.67 15.32 17.34 16 17 C15.01 16.34 14.02 15.68 13 15 Z M7 17 C8 19 8 19 8 19 Z M49 17 C50 19 50 19 50 19 Z " fill="#9B791B" transform="translate(53,71)"/>
<path d="M0 0 C1.32 0.33 2.64 0.66 4 1 C4.33 2.32 4.66 3.64 5 5 C7.475 5.495 7.475 5.495 10 6 C9.67 7.65 9.34 9.3 9 11 C9.66 11 10.32 11 11 11 C10.855625 11.55429687 10.71125 12.10859375 10.5625 12.6796875 C10.2840625 13.76636719 10.2840625 13.76636719 10 14.875 C9.7215625 15.95394531 9.7215625 15.95394531 9.4375 17.0546875 C8.92686035 18.99289317 8.92686035 18.99289317 9 21 C10.32 20.34 11.64 19.68 13 19 C12.94199219 18.40832031 12.88398437 17.81664063 12.82421875 17.20703125 C12.56677945 12.69816571 12.52866549 10.65463126 15.25 6.875 C18 5 18 5 19.9375 4.9375 C22.88233116 6.45453423 25.4244883 7.89276315 28 10 C28.1875 12.5 28.1875 12.5 28 15 C29.39957197 17.28484306 29.39957197 17.28484306 31 19 C26.7357974 24.72621492 26.7357974 24.72621492 23.3125 26 C22.549375 26 21.78625 26 21 26 C20.34 25.34 19.68 24.68 19 24 C18.01 24 17.02 24 16 24 C14.9287085 23.98952637 13.85741699 23.97905273 12.75366211 23.96826172 C9.23964072 23.93417224 5.72579206 23.90922483 2.21166992 23.89013672 C0.69373833 23.88003347 -0.82417361 23.86635296 -2.34204102 23.84912109 C-4.53146116 23.82492861 -6.72062713 23.81353497 -8.91015625 23.8046875 C-10.22121338 23.79421387 -11.53227051 23.78374023 -12.88305664 23.77294922 C-16.10185018 23.66593967 -16.10185018 23.66593967 -18 26 C-21.14397871 25.89158694 -22.35151428 24.71097715 -24.8125 22.6875 C-27 20 -27 20 -26.9375 18.125 C-26.628125 17.42375 -26.31875 16.7225 -26 16 C-25.649375 14.7625 -25.29875 13.525 -24.9375 12.25 C-24.4734375 10.64125 -24.4734375 10.64125 -24 9 C-22.68 9 -21.36 9 -20 9 C-19.67 8.01 -19.34 7.02 -19 6 C-17.25 5 -17.25 5 -15 5 C-12.25 7 -12.25 7 -10 10 C-9.64798897 13.46144178 -9.43064406 15.86128812 -11 19 C-9.35 19.66 -7.7 20.32 -6 21 C-6.0721875 20.32453125 -6.144375 19.6490625 -6.21875 18.953125 C-6.3115625 18.06109375 -6.404375 17.1690625 -6.5 16.25 C-6.5928125 15.36828125 -6.685625 14.4865625 -6.78125 13.578125 C-7 11 -7 11 -7 7 C-5.824375 6.6596875 -5.824375 6.6596875 -4.625 6.3125 C-1.78125 5.21875 -1.78125 5.21875 -0.6875 2.375 C-0.460625 1.59125 -0.23375 0.8075 0 0 Z M-16 12 C-15 14 -15 14 -15 14 Z " fill="#84603D" transform="translate(80,31)"/>
<path d="M0 0 C0.85380428 2.96121008 1.13517764 5.6087644 1.125 8.6875 C1.12886719 9.86892578 1.12886719 9.86892578 1.1328125 11.07421875 C1 13 1 13 0 14 C-1.66617115 14.04063832 -3.33388095 14.042721 -5 14 C-4.505 17.96 -4.505 17.96 -4 22 C-4.99 22.33 -5.98 22.66 -7 23 C-7.99 22.34 -8.98 21.68 -10 21 C-10.23074219 21.61359375 -10.46148437 22.2271875 -10.69921875 22.859375 C-12.84935391 26.39773557 -15.98586539 26.9751793 -19.78515625 28.23828125 C-27.86303484 30.1522379 -35.68596882 30.08224996 -43 26 C-43 24.68 -43 23.36 -43 22 C-40.05868109 21.01956036 -38.17498335 20.88378798 -35.11328125 20.90234375 C-34.17548828 20.90556641 -33.23769531 20.90878906 -32.27148438 20.91210938 C-31.29501953 20.92048828 -30.31855469 20.92886719 -29.3125 20.9375 C-28.32443359 20.94201172 -27.33636719 20.94652344 -26.31835938 20.95117188 C-23.87884526 20.96295697 -21.43945311 20.97940989 -19 21 C-19 20.01 -19 19.02 -19 18 C-18.35546875 17.78601563 -17.7109375 17.57203125 -17.046875 17.3515625 C-14.72160885 16.1526477 -14.72160885 16.1526477 -14.390625 13.3984375 C-14.32101563 11.90183594 -14.32101563 11.90183594 -14.25 10.375 C-14.19328125 9.37210938 -14.1365625 8.36921875 -14.078125 7.3359375 C-14.05234375 6.56507812 -14.0265625 5.79421875 -14 5 C-13.34 5 -12.68 5 -12 5 C-12 3.35 -12 1.7 -12 0 C-3.42857143 -1.28571429 -3.42857143 -1.28571429 0 0 Z M-8 5 C-8.33 6.32 -8.66 7.64 -9 9 C-7.68 9.33 -6.36 9.66 -5 10 C-4.67 8.68 -4.34 7.36 -4 6 C-5.32 5.67 -6.64 5.34 -8 5 Z M-9 16 C-8 18 -8 18 -8 18 Z " fill="#96947E" transform="translate(111,72)"/>
<path d="M0 0 C1.5675 0.020625 3.135 0.04125 4.75 0.0625 C4.75 4.3525 4.75 8.6425 4.75 13.0625 C1.78 12.5675 1.78 12.5675 -1.25 12.0625 C-1.25 12.7225 -1.25 13.3825 -1.25 14.0625 C-0.59 14.0625 0.07 14.0625 0.75 14.0625 C0.75 16.0425 0.75 18.0225 0.75 20.0625 C1.41 18.0825 2.07 16.1025 2.75 14.0625 C3.41 14.0625 4.07 14.0625 4.75 14.0625 C4.75 15.0525 4.75 16.0425 4.75 17.0625 C5.41 17.0625 6.07 17.0625 6.75 17.0625 C8.4375 18.8125 8.4375 18.8125 9.75 21.0625 C9.4375 23.3125 9.4375 23.3125 8.75 25.0625 C9.74 25.0625 10.73 25.0625 11.75 25.0625 C11.75 25.7225 11.75 26.3825 11.75 27.0625 C11.09 27.0625 10.43 27.0625 9.75 27.0625 C9.75 28.0525 9.75 29.0425 9.75 30.0625 C8.43 30.3925 7.11 30.7225 5.75 31.0625 C4.265 27.5975 4.265 27.5975 2.75 24.0625 C1.76 24.3925 0.77 24.7225 -0.25 25.0625 C-0.58 24.4025 -0.91 23.7425 -1.25 23.0625 C-2.24 22.7325 -3.23 22.4025 -4.25 22.0625 C-4.25 22.7225 -4.25 23.3825 -4.25 24.0625 C-5.57 24.0625 -6.89 24.0625 -8.25 24.0625 C-8.4665625 24.9596875 -8.4665625 24.9596875 -8.6875 25.875 C-9.1372439 27.62400404 -9.67892341 29.34927023 -10.25 31.0625 C-11.57 30.7325 -12.89 30.4025 -14.25 30.0625 C-14.25 29.4025 -14.25 28.7425 -14.25 28.0625 C-15.57 27.4025 -16.89 26.7425 -18.25 26.0625 C-18.25 24.4125 -18.25 22.7625 -18.25 21.0625 C-17.59 21.0625 -16.93 21.0625 -16.25 21.0625 C-15.92 20.0725 -15.59 19.0825 -15.25 18.0625 C-13.25 17.3125 -13.25 17.3125 -11.25 17.0625 C-10.92 17.3925 -10.59 17.7225 -10.25 18.0625 C-10.25 16.7425 -10.25 15.4225 -10.25 14.0625 C-7.23968256 13.12826355 -6.38349732 13.01800089 -3.25 14.0625 C-2.92 13.0725 -2.59 12.0825 -2.25 11.0625 C-4.56 10.7325 -6.87 10.4025 -9.25 10.0625 C-9.25 7.0925 -9.25 4.1225 -9.25 1.0625 C-5.84112017 0.21028004 -3.44565369 -0.04533755 0 0 Z " fill="#799C8C" transform="translate(84.25,55.9375)"/>
<path d="M0 0 C3.3125 0.9375 3.3125 0.9375 5.3125 2.9375 C5.3125 4.2575 5.3125 5.5775 5.3125 6.9375 C6.240625 5.4834375 6.240625 5.4834375 7.1875 4 C9.3125 0.9375 9.3125 0.9375 11.3125 -0.0625 C14.1875 -0.375 14.1875 -0.375 17.3125 -0.0625 C20.58315449 2.58938202 22.12874022 4.55930169 22.6875 8.75 C22.3125 11.9375 22.3125 11.9375 20.1875 14.8125 C17.3125 16.9375 17.3125 16.9375 14.25 17.4375 C11.09211005 16.89998682 9.64143595 16.08728703 7.3125 13.9375 C6.9825 14.9275 6.6525 15.9175 6.3125 16.9375 C-3.58664663 17.55192979 -3.58664663 17.55192979 -7.375 15.4375 C-9.22808741 11.90780969 -9.55204377 8.77486096 -8.6875 4.9375 C-5.98928541 0.93106016 -4.88490551 -0.08279501 0 0 Z M-2.6875 3.9375 C-5.02141203 6.71864056 -5.02141203 6.71864056 -4.3125 9.625 C-4.10625 10.388125 -3.9 11.15125 -3.6875 11.9375 C-2.0375 12.2675 -0.3875 12.5975 1.3125 12.9375 C0.6525 12.2775 -0.0075 11.6175 -0.6875 10.9375 C-0.6875 9.9475 -0.6875 8.9575 -0.6875 7.9375 C0.3025 7.2775 1.2925 6.6175 2.3125 5.9375 C1.9825 5.2775 1.6525 4.6175 1.3125 3.9375 C-0.0075 3.9375 -1.3275 3.9375 -2.6875 3.9375 Z M12.3125 3.9375 C11.27035309 8.55257774 11.27035309 8.55257774 12.3125 12.9375 C13.9625 12.6075 15.6125 12.2775 17.3125 11.9375 C17.3125 9.6275 17.3125 7.3175 17.3125 4.9375 C15.6625 4.6075 14.0125 4.2775 12.3125 3.9375 Z " fill="#102559" transform="translate(124.6875,79.0625)"/>
<path d="M0 0 C-0.226875 0.66 -0.45375 1.32 -0.6875 2 C-1.06963238 5.66847086 -0.13499264 7.80544298 1.30859375 11.1328125 C2 13 2 13 2 16 C2.7425 15.79375 3.485 15.5875 4.25 15.375 C7.32330841 14.95591249 8.42786866 15.38050989 11 17 C11 16.34 11 15.68 11 15 C10.236875 14.896875 9.47375 14.79375 8.6875 14.6875 C5.77882791 13.94342109 4.61989028 13.51982932 3 11 C3.125 8.4375 3.125 8.4375 4 6 C7 4 7 4 10.5625 4.1875 C14 5 14 5 16 8 C14.35 8.33 12.7 8.66 11 9 C11.66 9.33 12.32 9.66 13 10 C15.30299691 11.77153608 15.93724815 12.58165431 16.375 15.5 C16 18 16 18 14.875 19.8125 C12.20319873 21.5046408 10.10554744 21.19409671 7 21 C6.01 21 5.02 21 4 21 C1.375 20.625 1.375 20.625 -1 20 C-1.33 19.34 -1.66 18.68 -2 18 C-4.02463255 17.34786708 -4.02463255 17.34786708 -6 17 C-6.33 18.32 -6.66 19.64 -7 21 C-8.65 20.67 -10.3 20.34 -12 20 C-11.24110522 17.2253847 -10.46855414 14.45587812 -9.6875 11.6875 C-9.47416016 10.90181641 -9.26082031 10.11613281 -9.04101562 9.30664062 C-8.82509766 8.54931641 -8.60917969 7.79199219 -8.38671875 7.01171875 C-8.19295654 6.31522217 -7.99919434 5.61872559 -7.79956055 4.90112305 C-6.01026502 0.64669732 -4.65396013 0 0 0 Z M-4 12 C-3 14 -3 14 -3 14 Z " fill="#102458" transform="translate(165,75)"/>
<path d="M0 0 C1.32 0.33 2.64 0.66 4 1 C4.33 2.32 4.66 3.64 5 5 C6.65 5.33 8.3 5.66 10 6 C9.67 7.65 9.34 9.3 9 11 C9.66 11 10.32 11 11 11 C9.125 18.75 9.125 18.75 8 21 C6.06440687 21.13504138 4.126128 21.23201129 2.1875 21.3125 C0.56908203 21.39951172 0.56908203 21.39951172 -1.08203125 21.48828125 C-4 21 -4 21 -5.875 18.78125 C-7.01210336 15.97007781 -7.32189755 14.18904531 -7.1875 11.1875 C-7.16042969 10.39730469 -7.13335937 9.60710938 -7.10546875 8.79296875 C-7.07066406 8.20128906 -7.03585938 7.60960937 -7 7 C-5.824375 6.6596875 -5.824375 6.6596875 -4.625 6.3125 C-1.78125 5.21875 -1.78125 5.21875 -0.6875 2.375 C-0.460625 1.59125 -0.23375 0.8075 0 0 Z " fill="#BB9C33" transform="translate(80,31)"/>
<path d="M0 0 C0.85380428 2.96121008 1.13517764 5.6087644 1.125 8.6875 C1.12886719 9.86892578 1.12886719 9.86892578 1.1328125 11.07421875 C1 13 1 13 0 14 C-1.66617115 14.04063832 -3.33388095 14.042721 -5 14 C-4.67 16.64 -4.34 19.28 -4 22 C-4.99 22.33 -5.98 22.66 -7 23 C-7.99 22.34 -8.98 21.68 -10 21 C-10.20625 21.61875 -10.4125 22.2375 -10.625 22.875 C-12.54775888 25.84653645 -14.66594527 26.13024659 -18 27 C-17.57847656 26.54109375 -17.15695313 26.0821875 -16.72265625 25.609375 C-15.90087891 24.68898438 -15.90087891 24.68898438 -15.0625 23.75 C-14.51722656 23.14671875 -13.97195312 22.5434375 -13.41015625 21.921875 C-11.50909314 19.33095242 -11 17.1811685 -11 14 C-10.01 14 -9.02 14 -8 14 C-8 13.34 -8 12.68 -8 12 C-8.99 11.67 -9.98 11.34 -11 11 C-11.87867729 7.26562152 -12.08912219 3.83225427 -12 0 C-3.42857143 -1.28571429 -3.42857143 -1.28571429 0 0 Z M-8 5 C-8.33 6.32 -8.66 7.64 -9 9 C-7.68 9.33 -6.36 9.66 -5 10 C-4.67 8.68 -4.34 7.36 -4 6 C-5.32 5.67 -6.64 5.34 -8 5 Z M-9 16 C-8 18 -8 18 -8 18 Z " fill="#454347" transform="translate(111,72)"/>
<path d="M0 0 C1.32 0.33 2.64 0.66 4 1 C4 1.66 4 2.32 4 3 C5.32 2.01 6.64 1.02 8 0 C9.42258812 3.82320557 10.24042276 6.91281305 10 11 C4.34874578 13.28741242 0.78344243 13.02866351 -4.875 10.9375 C-5.57625 10.628125 -6.2775 10.31875 -7 10 C-6.01 7.36 -5.02 4.72 -4 2 C-2.68 2 -1.36 2 0 2 C0 1.34 0 0.68 0 0 Z " fill="#A78C19" transform="translate(80,78)"/>
<path d="M0 0 C1.2065625 0.0309375 1.2065625 0.0309375 2.4375 0.0625 C3.0975 2.3725 3.7575 4.6825 4.4375 7.0625 C5.4275 6.0725 6.4175 5.0825 7.4375 4.0625 C8.0975 4.7225 8.7575 5.3825 9.4375 6.0625 C8.7775 6.0625 8.1175 6.0625 7.4375 6.0625 C6.10416667 9.0625 6.10416667 9.0625 7.4375 12.0625 C7.65758052 13.78782263 7.84253094 15.51784033 8 17.25 C8.12568359 18.60158203 8.12568359 18.60158203 8.25390625 19.98046875 C8.31449219 20.66753906 8.37507813 21.35460937 8.4375 22.0625 C9.0975 22.0625 9.7575 22.0625 10.4375 22.0625 C10.1075 23.0525 9.7775 24.0425 9.4375 25.0625 C3.5625 20.4375 3.5625 20.4375 2.4375 17.0625 C1.7775 16.7325 1.1175 16.4025 0.4375 16.0625 C1.0975 16.0625 1.7575 16.0625 2.4375 16.0625 C1.7775 15.0725 1.1175 14.0825 0.4375 13.0625 C-0.10166146 10.4022977 -0.29620098 7.76987337 -0.5625 5.0625 C-0.8925 5.0625 -1.2225 5.0625 -1.5625 5.0625 C-1.52769531 6.11050781 -1.49289063 7.15851562 -1.45703125 8.23828125 C-1.42889063 9.61717147 -1.40159076 10.99607902 -1.375 12.375 C-1.33729492 13.41043945 -1.33729492 13.41043945 -1.29882812 14.46679688 C-1.22518041 19.5484892 -1.22518041 19.5484892 -2.875 22.0625 C-5.53673111 23.63982214 -7.6728927 22.76884845 -10.5625 22.0625 C-10.5625 21.7325 -10.5625 21.4025 -10.5625 21.0625 C-8.5825 20.4025 -6.6025 19.7425 -4.5625 19.0625 C-4.50191406 17.77472656 -4.44132813 16.48695312 -4.37890625 15.16015625 C-4.29451753 13.48175841 -4.2098687 11.80337364 -4.125 10.125 C-4.06602539 8.84979492 -4.06602539 8.84979492 -4.00585938 7.54882812 C-3.96396484 6.73994141 -3.92207031 5.93105469 -3.87890625 5.09765625 C-3.82391968 3.97435913 -3.82391968 3.97435913 -3.76782227 2.82836914 C-3.43390669 -0.04346364 -2.91857869 0.07118485 0 0 Z " fill="#0D2559" transform="translate(155.5625,48.9375)"/>
<path d="M0 0 C4.02277756 0.87451686 6.78534475 2.36982752 10 5 C10.1875 7.5 10.1875 7.5 10 10 C11.39957197 12.28484306 11.39957197 12.28484306 13 14 C12.34 14.66 11.68 15.32 11 16 C9.68 16 8.36 16 7 16 C6.67 16.99 6.34 17.98 6 19 C4 19 4 19 2.4375 17.8125 C0.62173805 15.52306101 0.21758641 13.9011521 0 11 C0.66 10.01 1.32 9.02 2 8 C1.81098299 5.91582473 1.81098299 5.91582473 1.125 3.8125 C0.75375 2.554375 0.3825 1.29625 0 0 Z " fill="#7F631C" transform="translate(98,36)"/>
<path d="M0 0 C3.77545388 1.09068668 6.47043472 1.9083091 9 5 C8.01 5.495 8.01 5.495 7 6 C7 8.31 7 10.62 7 13 C8.98 13 10.96 13 13 13 C13 13.33 13 13.66 13 14 C11.00458132 14.68025637 9.00382009 15.34490497 7 16 C6.01193359 16.36351562 6.01193359 16.36351562 5.00390625 16.734375 C3 17 3 17 1.26171875 15.92578125 C0.74222656 15.39339844 0.22273438 14.86101563 -0.3125 14.3125 C-0.84488281 13.79300781 -1.37726562 13.27351563 -1.92578125 12.73828125 C-3 11 -3 11 -2.734375 9.02734375 C-2.37085938 8.02380859 -2.37085938 8.02380859 -2 7 C-1.649375 5.7625 -1.29875 4.525 -0.9375 3.25 C-0.4734375 1.64125 -0.4734375 1.64125 0 0 Z " fill="#5E473C" transform="translate(56,40)"/>
<path d="M0 0 C0.99 0.33 1.98 0.66 3 1 C2.34 1 1.68 1 1 1 C1.18129815 4.43793339 1.18129815 4.43793339 2 8 C4.82299691 10.23892859 6.2791079 10 10 10 C9.34 9.46375 8.68 8.9275 8 8.375 C6 6 6 6 5.75 2.75 C5.8325 1.8425 5.915 0.935 6 0 C8.97 0.495 8.97 0.495 12 1 C12.33 1.99 12.66 2.98 13 4 C14.29355827 5.37195574 15.62298702 6.71182656 17 8 C15.68 8 14.36 8 13 8 C13.95865509 10.33075929 13.95865509 10.33075929 17 12 C15.02 12 13.04 12 11 12 C10.67 13.32 10.34 14.64 10 16 C7.5625 15.1875 7.5625 15.1875 5 14 C4.67 13.01 4.34 12.02 4 11 C3.38125 11.350625 2.7625 11.70125 2.125 12.0625 C1.42375 12.371875 0.7225 12.68125 0 13 C-0.66 12.67 -1.32 12.34 -2 12 C-1 3.42857143 -1 3.42857143 0 0 Z M8 4 C8.33 4.99 8.66 5.98 9 7 C9.66 6.67 10.32 6.34 11 6 C10.01 5.34 9.02 4.68 8 4 Z " fill="#5E6356" transform="translate(58,82)"/>
<path d="M0 0 C0.99 0 1.98 0 3 0 C4.5637472 4.69124159 3.90670239 9.42952293 3.7421875 14.3359375 C4.01530295 18.21748738 4.62882994 19.96710806 7 23 C7.99 23.66 8.98 24.32 10 25 C3.73806881 25.60210877 3.73806881 25.60210877 0.625 23.0625 C-1.49410553 19.06880111 -1.80535041 15.46720803 -2 11 C-2.66 11 -3.32 11 -4 11 C-4 8.69 -4 6.38 -4 4 C-3.01 4 -2.02 4 -1 4 C-0.67 2.68 -0.34 1.36 0 0 Z " fill="#16316B" transform="translate(138,50)"/>
<path d="M0 0 C1.32 0.33 2.64 0.66 4 1 C3.95875 1.78375 3.9175 2.5675 3.875 3.375 C3.71271266 6.16116119 3.71271266 6.16116119 6 8 C5.01 8 4.02 8 3 8 C2.67 9.32 2.34 10.64 2 12 C2.66 12.33 3.32 12.66 4 13 C3.67 13.66 3.34 14.32 3 15 C3.99 15.33 4.98 15.66 6 16 C6 16.66 6 17.32 6 18 C6.99 17.01 7.98 16.02 9 15 C9.99 15.33 10.98 15.66 12 16 C10.25 18.0625 10.25 18.0625 8 20 C6 19.8125 6 19.8125 4 19 C3.29875 18.855625 2.5975 18.71125 1.875 18.5625 C0 18 0 18 -2 16 C-2.99 15.34 -3.98 14.68 -5 14 C-4.34 13.67 -3.68 13.34 -3 13 C-3.03480469 12.39671875 -3.06960937 11.7934375 -3.10546875 11.171875 C-3.32933105 4.5626072 -3.32933105 4.5626072 -1.5 1.4375 C-0.7575 0.7259375 -0.7575 0.7259375 0 0 Z " fill="#904C1E" transform="translate(96,37)"/>
<path d="M0 0 C0.66 0.33 1.32 0.66 2 1 C2.28838718 3.46466983 2.46764398 5.83930286 2.5625 8.3125 C2.73735756 13.37620268 2.73735756 13.37620268 3.58984375 18.35546875 C4 20 4 20 3 22 C2.34 22 1.68 22 1 22 C1.226875 22.845625 1.45375 23.69125 1.6875 24.5625 C2.09143364 29.00577003 0.97302401 31.05395199 -1 35 C-3.31 35 -5.62 35 -8 35 C-7.01 34.505 -7.01 34.505 -6 34 C-5.67 33.01 -5.34 32.02 -5 31 C-4.01 31 -3.02 31 -2 31 C-2 30.01 -2 29.02 -2 28 C-1.34 28 -0.68 28 0 28 C0 27.34 0 26.68 0 26 C-1.65 26.66 -3.3 27.32 -5 28 C-4.01 25.69 -3.02 23.38 -2 21 C-1.34 21 -0.68 21 0 21 C0 14.07 0 7.14 0 0 Z " fill="#3F6070" transform="translate(96,55)"/>
<path d="M0 0 C0 2.97 0 5.94 0 9 C-3.96 9 -7.92 9 -12 9 C-12 6.69 -12 4.38 -12 2 C-7.8803623 0.70756464 -4.33168317 -0.26252625 0 0 Z " fill="#DEE5E6" transform="translate(88,56)"/>
<path d="M0 0 C4.29 0 8.58 0 13 0 C16.03692906 6.31681244 16.03692906 6.31681244 15.875 9.3125 C15 11 15 11 12 13 C9.26009592 12.96856707 6.71582146 12.44521663 4 12 C3.875 5.25 3.875 5.25 5 3 C3.68 2.67 2.36 2.34 1 2 C0.67 2.66 0.34 3.32 0 4 C0 2.68 0 1.36 0 0 Z M6 6 C6 7.65 6 9.3 6 11 C8.31 11 10.62 11 13 11 C13.59070014 9.05396726 13.59070014 9.05396726 14 7 C12.81575674 5.58422523 12.81575674 5.58422523 9.4375 5.9375 C7.7359375 5.9684375 7.7359375 5.9684375 6 6 Z " fill="#0E2559" transform="translate(116,49)"/>
<path d="M0 0 C1.65 0 3.3 0 5 0 C7.19218189 4.38436379 6.15774649 10.36901402 5 15 C4.34 15 3.68 15 3 15 C3 15.99 3 16.98 3 18 C2.01 18.33 1.02 18.66 0 19 C0 12.73 0 6.46 0 0 Z " fill="#057BC0" transform="translate(68,56)"/>
<path d="M0 0 C-2.31 0.33 -4.62 0.66 -7 1 C-7 3.31 -7 5.62 -7 8 C-3.04 8 0.92 8 5 8 C5 5.03 5 2.06 5 -1 C5.33 -1 5.66 -1 6 -1 C6 3.29 6 7.58 6 12 C3.03 11.505 3.03 11.505 0 11 C0.33 12.98 0.66 14.96 1 17 C0.34 17 -0.32 17 -1 17 C-1 17.99 -1 18.98 -1 20 C-1.66 20 -2.32 20 -3 20 C-3.33 18.35 -3.66 16.7 -4 15 C-4.66 16.32 -5.32 17.64 -6 19 C-6.33 17.02 -6.66 15.04 -7 13 C-6.34 12.67 -5.68 12.34 -5 12 C-4.01 12.33 -3.02 12.66 -2 13 C-1.67 12.01 -1.34 11.02 -1 10 C-3.31 9.67 -5.62 9.34 -8 9 C-8 6.03 -8 3.06 -8 0 C-4.29847322 -0.92538169 -3.36541838 -1.08174162 0 0 Z " fill="#639ABD" transform="translate(83,57)"/>
<path d="M0 0 C0.99 0.33 1.98 0.66 3 1 C3 1.99 3 2.98 3 4 C3.9793879 5.02019573 4.97895449 6.02149805 6 7 C6 7.66 6 8.32 6 9 C5.01 9 4.02 9 3 9 C3.3403125 10.11375 3.3403125 10.11375 3.6875 11.25 C4 14 4 14 2.84375 16.1875 C1 18 1 18 -1.48046875 18.171875 C-2.37378906 18.03265625 -3.26710938 17.8934375 -4.1875 17.75 C-5.08855469 17.62109375 -5.98960938 17.4921875 -6.91796875 17.359375 C-7.60503906 17.24078125 -8.29210937 17.1221875 -9 17 C-7.68 16.67 -6.36 16.34 -5 16 C-5 15.01 -5 14.02 -5 13 C-4.35546875 12.78601563 -3.7109375 12.57203125 -3.046875 12.3515625 C-0.72160885 11.1526477 -0.72160885 11.1526477 -0.390625 8.3984375 C-0.32101563 6.90183594 -0.32101563 6.90183594 -0.25 5.375 C-0.19328125 4.37210937 -0.1365625 3.36921875 -0.078125 2.3359375 C-0.05234375 1.56507812 -0.0265625 0.79421875 0 0 Z " fill="#676C60" transform="translate(97,77)"/>
<path d="M0 0 C0.99 0.33 1.98 0.66 3 1 C3 7.27 3 13.54 3 20 C2.01 20.33 1.02 20.66 0 21 C-1.93563986 14.05446874 -2.26052676 8.13025236 -1 1 C-0.67 0.67 -0.34 0.34 0 0 Z " fill="#077BC1" transform="translate(93,56)"/>
<path d="M0 0 C6.75 -0.125 6.75 -0.125 9 1 C8.67 1.99 8.34 2.98 8 4 C8 3.34 8 2.68 8 2 C6.35 2 4.7 2 3 2 C3.165 3.2375 3.33 4.475 3.5 5.75 C5.19325153 21.2101227 5.19325153 21.2101227 2 26 C-0.513526 17.35975438 -0.18417244 8.91189982 0 0 Z " fill="#1E6892" transform="translate(65,54)"/>
<path d="M0 0 C1.4540625 0.0309375 1.4540625 0.0309375 2.9375 0.0625 C2.6075 0.7225 2.2775 1.3825 1.9375 2.0625 C1.2775 2.0625 0.6175 2.0625 -0.0625 2.0625 C-0.71736092 8.42400605 -1.18318471 14.66621021 -1.0625 21.0625 C-1.3925 20.0725 -1.7225 19.0825 -2.0625 18.0625 C-2.7225 18.0625 -3.3825 18.0625 -4.0625 18.0625 C-4.0625 17.0725 -4.0625 16.0825 -4.0625 15.0625 C-4.7225 15.0625 -5.3825 15.0625 -6.0625 15.0625 C-6.18625 16.01125 -6.31 16.96 -6.4375 17.9375 C-7.0625 21.0625 -7.0625 21.0625 -9.0625 23.0625 C-8.7325 20.4225 -8.4025 17.7825 -8.0625 15.0625 C-8.7225 15.0625 -9.3825 15.0625 -10.0625 15.0625 C-10.0625 14.4025 -10.0625 13.7425 -10.0625 13.0625 C-7.0925 13.5575 -7.0925 13.5575 -4.0625 14.0625 C-4.07410156 13.13566406 -4.08570312 12.20882812 -4.09765625 11.25390625 C-4.10667969 10.05636719 -4.11570312 8.85882813 -4.125 7.625 C-4.13660156 6.43003906 -4.14820312 5.23507813 -4.16015625 4.00390625 C-4.02995498 0.08224398 -4.02995498 0.08224398 0 0 Z " fill="#0977B2" transform="translate(93.0625,54.9375)"/>
<path d="M0 0 C1.65 0 3.3 0 5 0 C6.42258812 3.82320557 7.24042276 6.91281305 7 11 C6.01 11.33 5.02 11.66 4 12 C3.01 11.34 2.02 10.68 1 10 C0.79375 10.61875 0.5875 11.2375 0.375 11.875 C-1.54775888 14.84653645 -3.66594527 15.13024659 -7 16 C-6.57847656 15.54109375 -6.15695313 15.0821875 -5.72265625 14.609375 C-4.90087891 13.68898438 -4.90087891 13.68898438 -4.0625 12.75 C-3.51722656 12.14671875 -2.97195312 11.5434375 -2.41015625 10.921875 C-0.50909314 8.33095242 0 6.1811685 0 3 C0.99 3 1.98 3 3 3 C3 2.34 3 1.68 3 1 C2.01 0.67 1.02 0.34 0 0 Z M2 5 C3 7 3 7 3 7 Z " fill="#6C4B3E" transform="translate(100,83)"/>
<path d="M0 0 C3.42054006 1.14018002 4.2426201 1.92458518 6 5 C5.6875 7.25 5.6875 7.25 5 9 C5.99 9 6.98 9 8 9 C8 9.66 8 10.32 8 11 C7.34 11 6.68 11 6 11 C6 11.99 6 12.98 6 14 C4.68 14.33 3.36 14.66 2 15 C-2.15134529 5.4338565 -2.15134529 5.4338565 -1.0625 2.3125 C-0.711875 1.549375 -0.36125 0.78625 0 0 Z " fill="#689192" transform="translate(88,72)"/>
<path d="M0 0 C1.32 0 2.64 0 4 0 C4 5.61 4 11.22 4 17 C2.68 17 1.36 17 0 17 C0 11.39 0 5.78 0 0 Z " fill="#0E2055" transform="translate(148,79)"/>
<path d="M0 0 C9.06187845 -0.46077348 9.06187845 -0.46077348 13 3 C13.8125 5.6875 13.8125 5.6875 14 8 C12.02 8.33 10.04 8.66 8 9 C7.34 8.01 6.68 7.02 6 6 C5.01 5.34 4.02 4.68 3 4 C3.99 4 4.98 4 6 4 C5.195625 3.71125 4.39125 3.4225 3.5625 3.125 C1 2 1 2 0 0 Z " fill="#102654" transform="translate(167,49)"/>
<path d="M0 0 C2 1.625 2 1.625 4 4 C4 6 4 8 4 10 C5.87501931 12.37719693 5.87501931 12.37719693 8 14 C6.35 14.33 4.7 14.66 3 15 C-0.55007718 11.0949151 -1.81819916 8.02265357 -3 3 C-2.01 3 -1.02 3 0 3 C0 2.01 0 1.02 0 0 Z " fill="#816133" transform="translate(61,78)"/>
<path d="M0 0 C1.32 1.65 2.64 3.3 4 5 C3.67 5.66 3.34 6.32 3 7 C2.34 6.34 1.68 5.68 1 5 C1.33 5.7425 1.66 6.485 2 7.25 C3 10 3 10 3 14 C1.68 13.67 0.36 13.34 -1 13 C-1 12.34 -1 11.68 -1 11 C-2.32 10.34 -3.64 9.68 -5 9 C-5 7.35 -5 5.7 -5 4 C-4.34 4 -3.68 4 -3 4 C-2.67 3.01 -2.34 2.02 -2 1 C-1.34 0.67 -0.68 0.34 0 0 Z " fill="#407C8F" transform="translate(71,73)"/>
<path d="M0 0 C2.475 0.99 2.475 0.99 5 2 C5.66 1.34 6.32 0.68 7 0 C7 0.66 7 1.32 7 2 C7.845625 1.814375 8.69125 1.62875 9.5625 1.4375 C13.29130578 0.96292472 16.29408734 1.47058391 20 2 C23.30714584 1.63112347 23.30714584 1.63112347 26 1 C25.67 1.99 25.34 2.98 25 4 C16.75 4 8.5 4 0 4 C0 2.68 0 1.36 0 0 Z " fill="#797652" transform="translate(69,50)"/>
<path d="M0 0 C0 1.32 0 2.64 0 4 C0.66 4 1.32 4 2 4 C1.67 4.99 1.34 5.98 1 7 C0.34 7 -0.32 7 -1 7 C-1 6.34 -1 5.68 -1 5 C-1.99 5 -2.98 5 -4 5 C-4 5.99 -4 6.98 -4 8 C-3.01 8 -2.02 8 -1 8 C-1.33 8.99 -1.66 9.98 -2 11 C-4 11 -4 11 -5.5625 9.8125 C-7.35420088 7.55339889 -7.70800782 5.84692373 -8 3 C-6.14481495 -0.71037009 -3.79223618 -1.26407873 0 0 Z " fill="#AD841B" transform="translate(106,44)"/>
<path d="M0 0 C-2.3125 2.0625 -2.3125 2.0625 -5 4 C-5.99 3.67 -6.98 3.34 -8 3 C-8 2.01 -8 1.02 -8 0 C-8.66 0 -9.32 0 -10 0 C-10.99 1.485 -10.99 1.485 -12 3 C-12 2.01 -12 1.02 -12 0 C-15.63 -0.33 -19.26 -0.66 -23 -1 C-23 -1.33 -23 -1.66 -23 -2 C-19.91826331 -2.25561761 -16.83497376 -2.47482039 -13.75 -2.6875 C-12.87730469 -2.76033203 -12.00460938 -2.83316406 -11.10546875 -2.90820312 C-3.13479873 -3.425384 -3.13479873 -3.425384 0 0 Z " fill="#8C8972" transform="translate(97,96)"/>
<path d="M0 0 C0.66 0.33 1.32 0.66 2 1 C6.3184576 2.60686794 10.42783123 3.45133975 15 4 C15 4.66 15 5.32 15 6 C12.9190156 6.24959784 10.83499188 6.47394907 8.75 6.6875 C7.58984375 6.81511719 6.4296875 6.94273438 5.234375 7.07421875 C1.67533206 6.99254989 0.51822275 6.42472438 -2 4 C-1.34 2.68 -0.68 1.36 0 0 Z " fill="#8B896F" transform="translate(69,93)"/>
<path d="M0 0 C4.62 0 9.24 0 14 0 C14 0.33 14 0.66 14 1 C12.7934375 1.185625 12.7934375 1.185625 11.5625 1.375 C10.716875 1.58125 9.87125 1.7875 9 2 C8.67 2.66 8.34 3.32 8 4 C4.9375 4.625 4.9375 4.625 2 5 C1.67 6.32 1.34 7.64 1 9 C0.01 8.34 -0.98 7.68 -2 7 C-2 6.34 -2 5.68 -2 5 C-1.34 5 -0.68 5 0 5 C0 3.35 0 1.7 0 0 Z " fill="#1C75A6" transform="translate(73,66)"/>
<path d="M0 0 C0.99 0.495 0.99 0.495 2 1 C2.28838718 3.46466983 2.46764398 5.83930286 2.5625 8.3125 C2.73735756 13.37620268 2.73735756 13.37620268 3.58984375 18.35546875 C4 20 4 20 3 22 C2.01 22 1.02 22 0 22 C0 14.74 0 7.48 0 0 Z " fill="#296487" transform="translate(96,55)"/>
<path d="M0 0 C1.32 0.33 2.64 0.66 4 1 C4.12375 1.598125 4.2475 2.19625 4.375 2.8125 C4.95475985 5.26231348 4.95475985 5.26231348 7 8 C3.7807732 9.0730756 3.09793558 8.79946725 0 8 C-0.99 8.495 -0.99 8.495 -2 9 C-3.66619446 9.0396713 -5.33391013 9.04384447 -7 9 C-7 8.34 -7 7.68 -7 7 C-5.824375 6.6596875 -5.824375 6.6596875 -4.625 6.3125 C-1.78125 5.21875 -1.78125 5.21875 -0.6875 2.375 C-0.460625 1.59125 -0.23375 0.8075 0 0 Z " fill="#9A7F47" transform="translate(80,31)"/>
<path d="M0 0 C0.99 0.33 1.98 0.66 3 1 C2.34 1 1.68 1 1 1 C1.18129815 4.43793339 1.18129815 4.43793339 2 8 C3.93597032 9.51294288 3.93597032 9.51294288 6 10 C5.67 10.99 5.34 11.98 5 13 C4.67 12.34 4.34 11.68 4 11 C3.38125 11.350625 2.7625 11.70125 2.125 12.0625 C1.42375 12.371875 0.7225 12.68125 0 13 C-0.66 12.67 -1.32 12.34 -2 12 C-1 3.42857143 -1 3.42857143 0 0 Z " fill="#5C352C" transform="translate(58,82)"/>
<path d="M0 0 C0.66 0 1.32 0 2 0 C1.96519531 0.66386719 1.93039063 1.32773437 1.89453125 2.01171875 C1.72916004 7.40597008 1.90942838 10.43132891 5 15 C4.6875 17.3125 4.6875 17.3125 4 19 C3.34 18.67 2.68 18.34 2 18 C2.33 17.34 2.66 16.68 3 16 C2.34 16 1.68 16 1 16 C-0.81760493 12.13758953 -1.0921075 9.23694478 -1 5 C-1.33 4.01 -1.66 3.02 -2 2 C-1.34 2 -0.68 2 0 2 C0 1.34 0 0.68 0 0 Z " fill="#152D71" transform="translate(163,55)"/>
<path d="M0 0 C0 0.66 0 1.32 0 2 C-1.98 2.33 -3.96 2.66 -6 3 C-6 5.64 -6 8.28 -6 11 C-7.98 11.99 -7.98 11.99 -10 13 C-10.60737527 5.8329718 -10.60737527 5.8329718 -7.8125 2 C-4.80512535 -0.13857753 -3.58848221 -0.51264032 0 0 Z " fill="#152A5C" transform="translate(126,79)"/>
<path d="M0 0 C2.625 -0.1875 2.625 -0.1875 5 0 C1.17819158 4.4008703 -1.47371099 5.80805531 -7 7 C-7.33 5.35 -7.66 3.7 -8 2 C-5.03 2.495 -5.03 2.495 -2 3 C-1.34 2.01 -0.68 1.02 0 0 Z M-3.875 7.9375 C-2.78832031 8.22947266 -2.78832031 8.22947266 -1.6796875 8.52734375 C-1.12539062 8.68332031 -0.57109375 8.83929688 0 9 C0 9.33 0 9.66 0 10 C-6.0546875 10.1953125 -6.0546875 10.1953125 -8 10 C-8.66 9.34 -9.32 8.68 -10 8 C-7.45297384 6.72648692 -6.5717055 7.19808075 -3.875 7.9375 Z " fill="#0F2456" transform="translate(175,66)"/>
<path d="M0 0 C0.99 0 1.98 0 3 0 C2 4 2 4 1 8 C1.66 8 2.32 8 3 8 C3 9.65 3 11.3 3 13 C1.35 13 -0.3 13 -2 13 C-2 10.69 -2 8.38 -2 6 C-1.34 6 -0.68 6 0 6 C0 4.02 0 2.04 0 0 Z " fill="#82381A" transform="translate(65,40)"/>
<path d="M0 0 C1.485 0.99 1.485 0.99 3 2 C3.32263214 4.00031928 3.63660499 6.00526005 3.81640625 8.0234375 C4.0083325 10.08970739 4.41920986 12.00871951 5 14 C3.68 13.67 2.36 13.34 1 13 C0.67 13.66 0.34 14.32 0 15 C0 10.05 0 5.1 0 0 Z " fill="#163171" transform="translate(153,51)"/>
<path d="M0 0 C0.66 0.33 1.32 0.66 2 1 C2.25 8.625 2.25 8.625 0 12 C-0.66 12 -1.32 12 -2 12 C-2.24954005 10.56589632 -2.47392642 9.12739928 -2.6875 7.6875 C-2.81511719 6.88699219 -2.94273437 6.08648437 -3.07421875 5.26171875 C-3 3 -3 3 -1.51953125 1.20703125 C-1.01808594 0.80871094 -0.51664063 0.41039063 0 0 Z " fill="#112761" transform="translate(162,76)"/>
<path d="M0 0 C2.625 -0.1875 2.625 -0.1875 5 0 C5.66 1.32 6.32 2.64 7 4 C4.03 3.505 4.03 3.505 1 3 C1.33 5.64 1.66 8.28 2 11 C0.02 11 -1.96 11 -4 11 C-4 9.68 -4 8.36 -4 7 C-2.515 7.99 -2.515 7.99 -1 9 C-0.89766574 6.97793418 -0.89766574 6.97793418 -1.625 5.0625 C-2 3 -2 3 0 0 Z " fill="#8C691B" transform="translate(56,75)"/>
<path d="M0 0 C1.32 0.33 2.64 0.66 4 1 C4 1.66 4 2.32 4 3 C3.01 3 2.02 3 1 3 C1 3.66 1 4.32 1 5 C-0.98 5.66 -2.96 6.32 -5 7 C-5 7.99 -5 8.98 -5 10 C-4.01 10.33 -3.02 10.66 -2 11 C-3.65 10.67 -5.3 10.34 -7 10 C-6.01 7.36 -5.02 4.72 -4 2 C-2.68 2 -1.36 2 0 2 C0 1.34 0 0.68 0 0 Z " fill="#A1984A" transform="translate(80,78)"/>
<path d="M0 0 C1.42258812 3.82320557 2.24042276 6.91281305 2 11 C0.35 11 -1.3 11 -3 11 C-4.35064935 3.51003542 -4.35064935 3.51003542 -2.625 1 C-1 0 -1 0 0 0 Z " fill="#928023" transform="translate(88,78)"/>
<path d="M0 0 C0.99 0.33 1.98 0.66 3 1 C3.33 1.99 3.66 2.98 4 4 C3.01 4 2.02 4 1 4 C1.37125 5.11375 1.37125 5.11375 1.75 6.25 C1.8325 7.1575 1.915 8.065 2 9 C0.0625 11.3125 0.0625 11.3125 -2 13 C-2.99 11.68 -3.98 10.36 -5 9 C-4.0409375 8.443125 -4.0409375 8.443125 -3.0625 7.875 C-0.36141928 5.41947207 -0.31592995 3.55421195 0 0 Z " fill="#7E7453" transform="translate(99,82)"/>
<path d="M0 0 C0 2.97 0 5.94 0 9 C-3 7 -3 7 -3.875 4.9375 C-4.86943709 2.70909738 -4.86943709 2.70909738 -7.625 2.25 C-8.40875 2.1675 -9.1925 2.085 -10 2 C-10.33 2.99 -10.66 3.98 -11 5 C-11.33 4.01 -11.66 3.02 -12 2 C-10.43670947 0.43670947 -8.72244543 0.6552225 -6.5625 0.4375 C-5.75941406 0.35371094 -4.95632812 0.26992187 -4.12890625 0.18359375 C-2 0 -2 0 0 0 Z " fill="#B9972D" transform="translate(66,73)"/>
<path d="M0 0 C0.66 0.33 1.32 0.66 2 1 C1.67 1.66 1.34 2.32 1 3 C1.99 3.33 2.98 3.66 4 4 C4 4.66 4 5.32 4 6 C4.99 5.01 5.98 4.02 7 3 C7.99 3.33 8.98 3.66 10 4 C8.25 6.0625 8.25 6.0625 6 8 C4 7.8125 4 7.8125 2 7 C1.29875 6.855625 0.5975 6.71125 -0.125 6.5625 C-2 6 -2 6 -4 4 C-2.68 4 -1.36 4 0 4 C0 2.68 0 1.36 0 0 Z " fill="#785120" transform="translate(98,49)"/>
<path d="M0 0 C0.33 0.99 0.66 1.98 1 3 C4.3 3 7.6 3 11 3 C11 3.99 11 4.98 11 6 C7.37 6 3.74 6 0 6 C0 4.02 0 2.04 0 0 Z " fill="#F4FAFB" transform="translate(76,59)"/>
<path d="M0 0 C2.99332739 0.9977758 3.94766315 1.7522025 6 4 C5.67 4.99 5.34 5.98 5 7 C3.125 7.875 3.125 7.875 1 8 C-0.8125 6.8125 -0.8125 6.8125 -2 5 C-1.74853421 2.86254078 -1.54074221 1.54074221 0 0 Z " fill="#363130" transform="translate(55,46)"/>
<path d="M0 0 C6.75 0.75 6.75 0.75 9 3 C9.125 5.625 9.125 5.625 9 8 C8.67 7.01 8.34 6.02 8 5 C7.34 5 6.68 5 6 5 C6 4.01 6 3.02 6 2 C5.34 2 4.68 2 4 2 C3.87625 2.94875 3.7525 3.8975 3.625 4.875 C3 8 3 8 1 10 C1.33 7.36 1.66 4.72 2 2 C1.34 2 0.68 2 0 2 C0 1.34 0 0.68 0 0 Z " fill="#2E748F" transform="translate(83,68)"/>
<path d="M0 0 C0.99 0 1.98 0 3 0 C3 0.66 3 1.32 3 2 C5.64 2 8.28 2 11 2 C11.33 2.99 11.66 3.98 12 5 C11.34 5.66 10.68 6.32 10 7 C9.01 7 8.02 7 7 7 C6.67 6.34 6.34 5.68 6 5 C4.02111039 4.27306096 2.02045442 3.60183749 0 3 C0 2.01 0 1.02 0 0 Z " fill="#5A4A43" transform="translate(99,79)"/>
<path d="M0 0 C0.33 0.99 0.66 1.98 1 3 C0.67 3.66 0.34 4.32 0 5 C0.66 5 1.32 5 2 5 C1.34 7.64 0.68 10.28 0 13 C-0.33 12.34 -0.66 11.68 -1 11 C-1.66 11 -2.32 11 -3 11 C-3 10.34 -3 9.68 -3 9 C-2.01 9 -1.02 9 0 9 C0 8.34 0 7.68 0 7 C-0.99 6.67 -1.98 6.34 -3 6 C-2.67 5.01 -2.34 4.02 -2 3 C-2.66 2.67 -3.32 2.34 -4 2 C-2.68 1.34 -1.36 0.68 0 0 Z " fill="#B39544" transform="translate(89,37)"/>
<path d="M0 0 C2.4164124 0.48328248 4.65832183 1.21944061 7 2 C6.67 3.65 6.34 5.3 6 7 C5.34 7 4.68 7 4 7 C4 6.34 4 5.68 4 5 C2.68 5 1.36 5 0 5 C-0.5625 3.0625 -0.5625 3.0625 -1 1 C-0.67 0.67 -0.34 0.34 0 0 Z " fill="#BB9C29" transform="translate(80,38)"/>
<path d="M0 0 C2.31 0 4.62 0 7 0 C7.33 0.99 7.66 1.98 8 3 C5.6875 4.5625 5.6875 4.5625 3 6 C2.01 5.67 1.02 5.34 0 5 C0 3.35 0 1.7 0 0 Z " fill="#4F5153" transform="translate(99,73)"/>
<path d="M0 0 C0.33 1.32 0.66 2.64 1 4 C1.66 4 2.32 4 3 4 C3.26218749 7.14624993 3.24754367 8.61837017 1.5 11.3125 C0.7575 12.1478125 0.7575 12.1478125 0 13 C-0.99 12.67 -1.98 12.34 -3 12 C-2.34 11.67 -1.68 11.34 -1 11 C-1.01160156 10.37351562 -1.02320312 9.74703125 -1.03515625 9.1015625 C-1.04417969 8.28429688 -1.05320312 7.46703125 -1.0625 6.625 C-1.07410156 5.81289063 -1.08570312 5.00078125 -1.09765625 4.1640625 C-1 2 -1 2 0 0 Z " fill="#955E32" transform="translate(94,39)"/>
<path d="M0 0 C0.99 0 1.98 0 3 0 C4.50934217 3.01868434 4.17510672 5.67297229 4 9 C3.01 10.485 3.01 10.485 2 12 C2 11.01 2 10.02 2 9 C1.34 9 0.68 9 0 9 C0.52268466 6.23723823 1.10869587 3.6739124 2 1 C1.34 0.67 0.68 0.34 0 0 Z " fill="#9F5E2F" transform="translate(66,39)"/>
<path d="M0 0 C0.66 0 1.32 0 2 0 C2.268125 1.093125 2.53625 2.18625 2.8125 3.3125 C3.87663739 6.61692663 4.34654664 7.94960422 7 10 C5.35 10.33 3.7 10.66 2 11 C0.19769832 7.17010894 -0.19622241 4.21878192 0 0 Z " fill="#A09C7D" transform="translate(62,82)"/>
<path d="M0 0 C2.475 0.99 2.475 0.99 5 2 C5 2.66 5 3.32 5 4 C6.29233607 5.37310707 7.62437146 6.71034824 9 8 C6.1875 7.8125 6.1875 7.8125 3 7 C1.14766715 4.59196729 0 3.07258075 0 0 Z " fill="#3A5F67" transform="translate(66,82)"/>
<path d="M0 0 C1.00259507 3.00778521 1.30314642 5.53820647 1.5625 8.6875 C1.64628906 9.68136719 1.73007813 10.67523438 1.81640625 11.69921875 C1.87699219 12.45847656 1.93757812 13.21773437 2 14 C1.01 14 0.02 14 -1 14 C-1.02685938 11.85423363 -1.04633088 9.70837355 -1.0625 7.5625 C-1.07410156 6.36753906 -1.08570313 5.17257813 -1.09765625 3.94140625 C-1 1 -1 1 0 0 Z " fill="#0E2760" transform="translate(149,82)"/>
<path d="M0 0 C0.33 0 0.66 0 1 0 C1 2.97 1 5.94 1 9 C-0.66666667 9 -2.33333333 9 -4 9 C-4 6.69 -4 4.38 -4 2 C-3.01 2 -2.02 2 -1 2 C-0.67 1.34 -0.34 0.68 0 0 Z " fill="#1A3770" transform="translate(138,52)"/>
<path d="M0 0 C0.66 0 1.32 0 2 0 C3.4783226 2.95664519 3.06032783 5.74229737 3 9 C2.01 8.67 1.02 8.34 0 8 C-0.38063221 5.6739143 -0.71269945 3.33944736 -1 1 C-0.67 0.67 -0.34 0.34 0 0 Z " fill="#102964" transform="translate(143,81)"/>
<path d="M0 0 C0.99 0.33 1.98 0.66 3 1 C3 2.65 3 4.3 3 6 C1.02 6.99 1.02 6.99 -1 8 C-2.2077558 4.37673261 -1.54311128 3.35853631 0 0 Z " fill="#5C8477" transform="translate(88,72)"/>
<path d="M0 0 C5.61 0 11.22 0 17 0 C15.02 0.99 15.02 0.99 13 2 C12.01 3.485 12.01 3.485 11 5 C11 4.01 11 3.02 11 2 C7.37 1.67 3.74 1.34 0 1 C0 0.67 0 0.34 0 0 Z " fill="#817E68" transform="translate(74,94)"/>
<path d="M0 0 C1.32 0.33 2.64 0.66 4 1 C4 3.31 4 5.62 4 8 C2.68 7.34 1.36 6.68 0 6 C0 4 0 2 0 0 Z " fill="#0E296D" transform="translate(126,87)"/>
<path d="M0 0 C0 1.65 0 3.3 0 5 C-0.99 5.33 -1.98 5.66 -3 6 C-3.66 5.67 -4.32 5.34 -5 5 C-5 3.68 -5 2.36 -5 1 C-1.125 0 -1.125 0 0 0 Z " fill="#602625" transform="translate(107,89)"/>
<path d="M0 0 C1.32 0 2.64 0 4 0 C4 0.66 4 1.32 4 2 C4.66 2.33 5.32 2.66 6 3 C5.34 3.66 4.68 4.32 4 5 C1.875 4.625 1.875 4.625 0 4 C0 2.68 0 1.36 0 0 Z " fill="#4E4D4D" transform="translate(58,52)"/>
<path d="M0 0 C2.475 0.495 2.475 0.495 5 1 C5.33 2.65 5.66 4.3 6 6 C4.68 5.67 3.36 5.34 2 5 C2 4.34 2 3.68 2 3 C1.34 3 0.68 3 0 3 C0 2.01 0 1.02 0 0 Z " fill="#142C66" transform="translate(174,50)"/>
<path d="M0 0 C1.875 0.3125 1.875 0.3125 4 1 C4.66 1.99 5.32 2.98 6 4 C4.68 4.99 3.36 5.98 2 7 C1.34 4.69 0.68 2.38 0 0 Z " fill="#846C4A" transform="translate(98,36)"/>
<path d="M0 0 C2.9719385 1.12451727 5.33440687 2.22293791 8 4 C5.36 4 2.72 4 0 4 C0 2.68 0 1.36 0 0 Z " fill="#878787" transform="translate(69,50)"/>
<path d="M0 0 C0 2.62113708 -0.31292445 4.50935112 -1 7 C-3.475 6.01 -3.475 6.01 -6 5 C-5.67 4.01 -5.34 3.02 -5 2 C-2.4375 0.8125 -2.4375 0.8125 0 0 Z " fill="#77765B" transform="translate(69,91)"/>
<path d="M0 0 C0.99 0.33 1.98 0.66 3 1 C2.34 1 1.68 1 1 1 C1.66 3.64 2.32 6.28 3 9 C1.35 8.67 -0.3 8.34 -2 8 C-1.34 5.36 -0.68 2.72 0 0 Z " fill="#72472B" transform="translate(58,82)"/>
<path d="M0 0 C2.0625 0.4375 2.0625 0.4375 4 1 C4 3.31 4 5.62 4 8 C3.67 8 3.34 8 3 8 C2.67 6.35 2.34 4.7 2 3 C1.34 4.32 0.68 5.64 0 7 C-0.38133299 5.0085944 -0.71325582 3.00720923 -1 1 C-0.67 0.67 -0.34 0.34 0 0 Z " fill="#457A84" transform="translate(77,69)"/>
<path d="M0 0 C-0.57344937 2.86724686 -0.8614515 3.8614515 -3 6 C-3.99 4.68 -4.98 3.36 -6 2 C-2.25 0 -2.25 0 0 0 Z " fill="#95926E" transform="translate(100,89)"/>
<path d="M0 0 C0.99 0 1.98 0 3 0 C3.625 1.8125 3.625 1.8125 4 4 C3.01 5.485 3.01 5.485 2 7 C1.01 7 0.02 7 -1 7 C-0.67 4.69 -0.34 2.38 0 0 Z " fill="#022259" transform="translate(131,84)"/>
<path d="M0 0 C0.66 2.97 1.32 5.94 2 9 C-2.875 6.375 -2.875 6.375 -4 3 C-1.125 0 -1.125 0 0 0 Z " fill="#999C5A" transform="translate(88,78)"/>
<path d="M0 0 C0.99 0.33 1.98 0.66 3 1 C3 2.32 3 3.64 3 5 C1.02 5.66 -0.96 6.32 -3 7 C-2.01 4.69 -1.02 2.38 0 0 Z " fill="#327189" transform="translate(94,76)"/>
<path d="M0 0 C0.66 0 1.32 0 2 0 C2.33 1.98 2.66 3.96 3 6 C2.34 6 1.68 6 1 6 C0.67 6.99 0.34 7.98 0 9 C0 6.03 0 3.06 0 0 Z " fill="#5093B0" transform="translate(81,68)"/>
<path d="M0 0 C0.33 0.99 0.66 1.98 1 3 C1.99 3.33 2.98 3.66 4 4 C3.67 4.99 3.34 5.98 3 7 C2.01 6.67 1.02 6.34 0 6 C-1.1875 3.4375 -1.1875 3.4375 -2 1 C-1.34 0.67 -0.68 0.34 0 0 Z " fill="#4F474B" transform="translate(107,75)"/>
<path d="M0 0 C0.66 0.33 1.32 0.66 2 1 C1.375 2.875 1.375 2.875 0 5 C-3.125 6.25 -3.125 6.25 -6 7 C-4.02 4.69 -2.04 2.38 0 0 Z " fill="#65604E" transform="translate(99,92)"/>
<path d="M0 0 C1.65 0 3.3 0 5 0 C4.67 1.32 4.34 2.64 4 4 C2.68 3.67 1.36 3.34 0 3 C0 2.01 0 1.02 0 0 Z " fill="#D1B11A" transform="translate(79,86)"/>
<path d="M0 0 C2 1 4 2 6 3 C6 3.99 6 4.98 6 6 C4.68 5.67 3.36 5.34 2 5 C2 4.34 2 3.68 2 3 C1.34 2.67 0.68 2.34 0 2 C0 1.34 0 0.68 0 0 Z " fill="#6E949B" transform="translate(68,81)"/>
<path d="M0 0 C0 2.64 0 5.28 0 8 C-1.5 6.75 -1.5 6.75 -3 5 C-3 3.68 -3 2.36 -3 1 C-1 0 -1 0 0 0 Z " fill="#7F7457" transform="translate(63,83)"/>
<path d="M0 0 C0.99 0 1.98 0 3 0 C3.66 1.65 4.32 3.3 5 5 C4.01 5 3.02 5 2 5 C1.34 3.35 0.68 1.7 0 0 Z " fill="#618273" transform="translate(69,78)"/>
<path d="M0 0 C1.33333333 2.66666667 2.66666667 5.33333333 4 8 C2.0625 7.1875 2.0625 7.1875 0 6 C-1 3 -1 3 0 0 Z " fill="#17275E" transform="translate(139,67)"/>
<path d="M0 0 C0.66 0 1.32 0 2 0 C2 0.99 2 1.98 2 3 C2.99 3 3.98 3 5 3 C4.67 3.99 4.34 4.98 4 6 C2 6 2 6 0.375 4.5 C-0.07875 4.005 -0.5325 3.51 -1 3 C-0.67 2.01 -0.34 1.02 0 0 Z " fill="#D9AD27" transform="translate(100,49)"/>
<path d="M0 0 C1.32 0 2.64 0 4 0 C4 1.65 4 3.3 4 5 C3.01 5 2.02 5 1 5 C0.67 3.35 0.34 1.7 0 0 Z " fill="#A23422" transform="translate(64,48)"/>
<path d="M0 0 C0 0.66 0 1.32 0 2 C0.66 2 1.32 2 2 2 C1.67 2.99 1.34 3.98 1 5 C0.34 5 -0.32 5 -1 5 C-1 4.34 -1 3.68 -1 3 C-1.99 3 -2.98 3 -4 3 C-4 2.34 -4 1.68 -4 1 C-2 0 -2 0 0 0 Z " fill="#DDB220" transform="translate(106,46)"/>
<path d="M0 0 C0.33 0.66 0.66 1.32 1 2 C1.66 2 2.32 2 3 2 C3 3.65 3 5.3 3 7 C2.01 7 1.02 7 0 7 C0 4.69 0 2.38 0 0 Z " fill="#AA3513" transform="translate(95,46)"/>
<path d="M0 0 C2.475 0.99 2.475 0.99 5 2 C5 2.99 5 3.98 5 5 C4.38125 4.814375 3.7625 4.62875 3.125 4.4375 C0.95839822 3.76313824 0.95839822 3.76313824 -1 5 C-0.67 3.35 -0.34 1.7 0 0 Z " fill="#A78D38" transform="translate(74,40)"/>
</svg>
